<svg width="128" height="128" viewBox="0 0 128 128" fill="none" xmlns="http://www.w3.org/2000/svg">
<g clip-path="url(#clip0_1_7)">
<rect width="128" height="128" rx="16" fill="black"/>
<path d="M36 135V46.3552C36 40.1224 37.1158 35.0053 39.3473 31.004C41.6557 26.9257 44.8876 23.9247 49.0428 22.001C53.275 20.0003 58.2381 19 63.9323 19C69.4726 19 74.205 19.8464 78.1293 21.5393C82.0537 23.1552 85.0547 25.6176 87.1323 28.9264C89.2869 32.1582 90.3642 36.2365 90.3642 41.1612C90.3642 44.8547 89.7101 48.0481 88.402 50.7413C87.1708 53.4345 85.401 55.5891 83.0925 57.205C80.861 58.8209 78.1678 59.9366 75.0129 60.5522V60.8985C79.0143 61.4371 82.4769 62.5529 85.401 64.2458C88.402 65.9386 90.7104 68.324 92.3264 71.402C94.0192 74.403 94.8657 78.2504 94.8657 82.9443C94.8657 88.3307 93.6345 92.9476 91.1721 96.795C88.7867 100.566 85.5549 103.451 81.4766 105.452C77.4753 107.452 73.0123 108.453 68.0876 108.453C65.6252 108.453 63.5861 108.299 61.9701 107.991C60.3542 107.76 58.8537 107.375 57.4687 106.837C56.1605 106.298 54.737 105.644 53.198 104.875V135H36ZM64.8557 94.7174C68.7031 94.7174 71.7041 93.5632 73.8587 91.2547C76.0133 88.8693 77.0905 85.599 77.0905 81.4438C77.0905 78.2889 76.4365 75.7496 75.1284 73.8259C73.8972 71.8252 72.3197 70.4017 70.396 69.5552C68.4723 68.6318 66.4716 68.1701 64.394 68.1701H59.2V55.2428H63.3552C65.4328 55.2428 67.2026 54.7426 68.6647 53.7423C70.1267 52.665 71.2425 51.2415 72.0119 49.4716C72.7814 47.6249 73.1662 45.5473 73.1662 43.2388C73.1662 39.6222 72.2428 36.929 70.396 35.1592C68.5493 33.3124 66.3562 32.3891 63.8169 32.3891C61.6624 32.3891 59.7771 32.8507 58.1612 33.7741C56.5453 34.6975 55.3141 36.198 54.4677 38.2756C53.6212 40.2763 53.198 43.008 53.198 46.4706V90.793C55.1217 92.0242 57.007 92.9861 58.8537 93.6786C60.7005 94.3711 62.7012 94.7174 64.8557 94.7174Z" fill="#2DD4BF"/>
</g>
<defs>
<clipPath id="clip0_1_7">
<rect width="128" height="128" rx="16" fill="white"/>
</clipPath>
</defs>
</svg>
