<svg xmlns="http://www.w3.org/2000/svg" viewBox="0 0 1495.14 998.49"><defs><style>.cls-1{fill:none;stroke:#111827;stroke-miterlimit:10;stroke-width:2px;}</style></defs><g id="Layer_2" data-name="Layer 2"><g id="lines"><polyline class="cls-1" points="644.49 794.94 655.75 785.43 689.39 757.06 760.74 696.91 765.98 684.67 788.48 632.17 789.8 562.15 780.9 536.62 781.27 530.25 781.67 523.38 782.01 517.44 782.63 506.66 778.11 496.09 784.37 503.35 778.11 487.49 785.42 497.41 778.11 477.72 784.52 486.84 782.29 477.64 780.12 468.69 778.11 460.41"/><polyline class="cls-1" points="431.32 613.69 467.43 708.8 508.31 790.56 516.32 806.57 532.17 816.79 557.27 832.99 582.85 832.99 599.35 832.99 635.02 802.91 644.47 794.94"/><polyline class="cls-1" points="414.21 525.91 414.04 533.5 413.64 550.26 413.26 566.11 427.37 603.26 431.31 613.67"/><polyline class="cls-1" points="468.75 400.37 435.72 387.47 438.72 324.33 427.8 324.33 426.46 332.26 417.19 387.19 415.39 397.84 410.62 426.06 410.62 451.46 411.5 454.05 419.21 476.68 414.58 510.62 414.21 525.89"/><polyline class="cls-1" points="571.81 622.92 604.41 648 623.33 662.56 664.29 690.3 676.18 710.12 673.58 724.65 673.54 710.12 662.97 692.95 619.37 665.2 613.66 667.94 564.32 691.59 555.95 695.59 508.75 703.46 508.39 703.52"/><polyline class="cls-1" points="525.83 647.36 512.99 655.95 507.07 659.92 499.14 651.66 490.79 642.95"/><polyline class="cls-1" points="549.69 667.86 551.99 671.81 547.76 667.86 525.83 647.36 528.21 584.61 532.17 521.63 517.64 515.9 509.71 518.55 505.27 535.72 499.14 559.5 492.55 625.45 490.79 642.95 489.1 659.92 488.57 665.2"/><polyline class="cls-1" points="492.55 625.45 484.98 619.86 481.96 617.64 473.9 627.29 468.75 633.49 468.75 642.95 468.75 649.16 473.9 653.34 488.57 665.2 503.1 679.73 526.88 682.38 551.99 671.81 573.13 671.81 580.53 667.86 592.95 661.24 595.59 650.67 571.81 622.92 554.63 632.17 551.99 637.46 542.74 655.95 549.68 667.84"/><polyline class="cls-1" points="479.67 682.38 500.46 724.65 520.28 751.08 554.63 766.93 591.62 769.58 632.45 743.15 656.23 711.85"/><path class="cls-1" d="M491.81,694l16.93,9.46,14.18,7.9s30.39,1.4,31.71,1.4,41-7.67,41-7.67l48.88-2.9,8.67-.76,12.07,9.27v14.1L640.51,759l-44.92,35.46-39.22,6.26-30.54-12.45"/><line class="cls-1" x1="520.41" y1="727.23" x2="491.79" y2="694"/><polyline class="cls-1" points="653.14 709.32 624.65 735.22 588.98 743.15 582.9 742.62 567.95 741.33 558.59 740.51 556.37 739.8 540.64 734.74 521.6 728.62 520.41 727.24"/><polyline class="cls-1" points="518.75 714.93 520.41 727.23 520.41 727.24"/><line class="cls-1" x1="538.84" y1="719" x2="540.64" y2="734.74"/><polyline class="cls-1" points="560.67 720.1 560.67 720.11 562.37 734.95 562.56 736.55 556.37 739.8"/><polyline class="cls-1" points="580.01 714.65 581.07 725.46 581.24 727.24 569.39 734.74 562.37 734.95"/><polyline class="cls-1" points="590.62 723.02 597.13 719 597.13 714.93 597.13 709.82"/><polyline class="cls-1" points="581.05 725.46 581.07 725.46 586.68 725.46 590.62 723.03"/><polyline class="cls-1" points="597.13 714.93 605.6 714.44 611.64 714.09 614.08 711.44 614.08 709.82 614.08 705.7"/><polyline class="cls-1" points="614.08 709.82 619.41 706.11 621.15 704.89"/><polyline class="cls-1" points="569.39 734.74 569.02 736.41 567.95 741.32"/><path class="cls-1" d="M569,736.41c1.46.14,14,4.91,14,4.91l9-6.58-.3-2.57L590.62,723h0"/><polyline class="cls-1" points="591.73 732.17 602.19 736.55 608.8 728.62 608.1 725.49 605.6 714.44"/><polyline class="cls-1" points="608.1 725.49 620.65 726.64 623.66 720.1 622.91 717.64 619.41 706.11"/><polyline class="cls-1" points="622.91 717.64 633.68 714.93 635.02 710.32 630.73 703.78"/><polyline class="cls-1" points="509.71 518.55 483.29 484.2 464.79 476.27 430.44 453.81 418.16 451.46 411.5 454.05"/><polyline class="cls-1" points="464.79 476.27 472.72 468.34 422.51 428.71 410.62 426.06"/><polygon class="cls-1" points="554.63 470.98 577.09 476.27 640.9 465.7 689.39 474.95 681.58 460.48 681.52 460.35 676.71 451.46 641.83 444.56 554.63 470.98"/><polyline class="cls-1" points="441.93 518.55 444.27 525.67 444.97 527.8 449.82 533.82"/><polyline class="cls-1" points="438.72 499.67 438.72 508.73 441.93 518.53"/><polyline class="cls-1" points="444.27 525.67 447.6 518.55 452.9 514.58 460.6 515.9 470.07 521.19 475.36 527.8 477.09 533.5"/><polygon class="cls-1" points="658.94 535.72 656.06 535.72 632.58 552.9 612.76 556.86 600.65 555.98 595.59 555.61 580.8 543.65 569.16 543.65 578.41 530.44 582.89 527.58 592.95 521.19 626.01 521.19 640.1 525.89 641.83 526.48 651.88 533.82 658.94 535.72"/><path class="cls-1" d="M582.89,527.58c-.51.22,4.77,16.07,4.77,16.07l4.32,3.7,4.93,4.23,4,1.32h14l9.79-6,19.82-13.39-4.37-7.61"/><polyline class="cls-1" points="543.61 537.04 551.99 596.5 551.99 617.28 551.99 637.46"/><polyline class="cls-1" points="554.63 632.17 559.47 632.17 569.16 632.17 569.39 632.17 582.85 651.43 580.53 667.86"/><polyline class="cls-1" points="468.75 642.95 459.28 653.34 473.9 682.38 479.67 682.38 491.79 694 491.81 694 503.1 704.84 518.75 714.93 522.92 717.63 538.84 719 558.59 720.69 560.67 720.11 580.01 714.65 597.13 709.82 610.12 706.16 614.08 705.7 621.15 704.89 621.17 704.88 630.73 703.78 641.43 702.54 644.47 702.19 653.14 709.32 656.23 711.85 658.94 714.09 656.36 724.65 636.54 753.72 595.59 782.62 554.63 785.43 533.49 780.14 516.71 765.43"/><polyline class="cls-1" points="483.95 525.47 490.79 530.69 488.57 533.08 479.48 533.08 477.09 533.5 464.79 535.72 449.82 533.82 441.67 532.78 433.08 523.83 427.8 506.66 427.8 502.69 427.8 501.37"/><line class="cls-1" x1="468.75" y1="513.87" x2="483.95" y2="525.46"/><polyline class="cls-1" points="462.75 509.3 451.58 501.37 433.08 494.77 421.19 495.76 421.19 509.3 427.8 502.69 433.08 497.41 438.72 499.67 462.75 509.3 468.74 513.87"/><polyline class="cls-1" points="569.16 543.65 565.2 530.44 582.85 503.35 621.17 494.77 665.22 503.35 699.71 537.04 682.99 535.72"/><line class="cls-1" x1="490.79" y1="530.69" x2="497.21" y2="528.26"/><polyline class="cls-1" points="689.39 474.95 702.41 494.77 718.46 519.21 723.74 547.35 723.74 581.97 710.51 559.5 689.39 562.91"/><polyline class="cls-1" points="415.38 397.84 415.39 397.84 435.72 393.03 468.75 400.37 472.72 468.34 483.29 484.2"/><polygon class="cls-1" points="538.72 485 512.35 496.09 483.29 484.2 477.09 396.69 513.11 400.37 559.47 396.69 542.63 468.34 538.72 485"/><path class="cls-1" d="M658.94,535.72h24l-24-11.68s-24-4.17-27.18-5.49-40.77,0-40.77,0l-15.22,9.25-6.61,15.85,11.89,22.41,19.16,15.15L629,583.3l35.33-13.23,25.1-7.16,19.82,8.49,9.25,21.13,5.2,13.89,2.73,7.25,10.42-60.77-5.14-43.6-11.89-26.43-38.2-22.39-.11-.07,0-.06,18.19-22.58-5.23-11.71-18.3-10L629,404.55l-50.46,2.09L554.63,471l-12-2.64"/><polyline class="cls-1" points="499.14 651.66 497.21 664.84 503.1 679.73"/><polyline class="cls-1" points="512.99 655.95 522.92 671.15 547.76 667.86"/><polyline class="cls-1" points="473.9 636.1 479.67 651.66 489.1 659.92"/><polyline class="cls-1" points="641.83 444.56 628.96 404.55 571.81 396.69 562.56 324.33 630.84 235.73 741.98 173.9"/><line class="cls-1" x1="435.72" y1="393.03" x2="422.51" y2="428.71"/><polyline class="cls-1" points="513.11 400.37 512.35 496.09 517.64 515.9 500.16 642.95 507.07 659.92 507.07 670.42 526.88 682.38"/><polyline class="cls-1" points="604.41 648 605.6 667.86 562.85 688.53 532.17 694 500.16 686.54 479.67 672.68 479.67 682.38"/><polyline class="cls-1" points="431.31 613.67 431.32 613.69 454.22 630.85 473.9 627.29"/><line class="cls-1" x1="705.25" y1="625.56" x2="723.66" y2="606.42"/><polyline class="cls-1" points="709.21 571.39 674.09 613.67 644.47 648 718.46 655.95"/><polyline class="cls-1" points="689.39 562.91 613.66 596.89 571.81 622.92"/><polyline class="cls-1" points="613.66 667.94 647.09 694 653.14 701.43"/><polyline class="cls-1" points="710.51 559.5 699.71 537.04 718.46 519.21"/><line class="cls-1" x1="595.59" y1="555.61" x2="600.21" y2="581.21"/><line class="cls-1" x1="612.76" y1="556.86" x2="628.96" y2="583.3"/><line class="cls-1" x1="632.58" y1="552.9" x2="664.29" y2="570.07"/><line class="cls-1" x1="479.48" y1="533.08" x2="485.93" y2="550.26"/><line class="cls-1" x1="464.79" y1="535.72" x2="449.82" y2="559.27"/><line class="cls-1" x1="441.67" y1="532.78" x2="426.17" y2="547.35"/><polyline class="cls-1" points="497.21 528.26 494.82 516.74 464.79 486.84 444.27 472.5 430.44 470.98 419.21 476.68"/><polyline class="cls-1" points="433.08 523.83 414.21 525.89 414.21 525.91 419.21 533.82 426.17 547.35 449.82 559.27 450.18 559.17 485.93 550.26 498.31 533.5 497.22 528.26"/><polyline class="cls-1" points="590.99 518.55 582.85 503.35 628.96 480.17 694.68 497.41 702.41 494.77"/><line class="cls-1" x1="621.17" y1="494.77" x2="631.76" y2="518.55"/><polyline class="cls-1" points="658.94 524.04 665.22 503.35 694.68 497.41"/><line class="cls-1" x1="451.58" y1="501.37" x2="464.79" y2="486.84"/><polyline class="cls-1" points="433.08 494.77 444.27 472.5 418.16 451.46"/><line class="cls-1" x1="430.44" y1="470.98" x2="421.19" y2="495.76"/><polyline class="cls-1" points="485.93 550.26 485.93 580.64 481.96 617.64"/><polyline class="cls-1" points="497.21 528.26 497.22 528.26 505.27 535.72"/><line class="cls-1" x1="565.2" y1="530.44" x2="543.61" y2="537.04"/><polyline class="cls-1" points="582.85 503.35 577.09 476.27 538.72 485 532.17 521.63 543.61 537.04 551.26 547.35 569.39 578.66 613.66 596.89 674.09 613.67 705.25 625.57 718.46 655.95 715.91 703.78"/><polyline class="cls-1" points="450.25 559.5 443.65 588.57 454.22 630.85 459.28 653.34 467.43 708.8"/><line class="cls-1" x1="473.9" y1="682.38" x2="530.37" y2="799.69"/><polyline class="cls-1" points="427.8 603.1 443.65 588.57 485.93 580.64 499.14 559.5 484.98 609.96 484.98 619.86 473.9 636.1 473.9 653.34 479.67 672.68"/><line class="cls-1" x1="426.17" y1="547.35" x2="413.26" y2="566.11"/><polyline class="cls-1" points="736.81 552.9 747.79 617.64 747.79 684.67 760.74 696.91 715.91 703.78 694.48 683.8 676.18 667.84 644.47 648 571.81 622.92 551.99 617.28 569.39 578.66 581.05 566.06 580.8 543.65"/><polyline class="cls-1" points="715.91 703.78 673.58 724.65 689.39 757.06"/><polyline class="cls-1" points="559.47 632.17 547.8 655.95 549.68 667.84 549.68 667.86 549.69 667.86 571.81 667.86 576.01 653.34 569.16 632.17"/><polyline class="cls-1" points="587.66 543.65 587.66 531.98 594.12 525.89 626.46 525.89 634.11 530.69 636.73 534.77 624.65 546.89 620.78 541.54 615.4 537.04 606.94 535.72 598.23 537.04 592.95 542.33 591.98 547.35"/><polyline class="cls-1" points="441.93 518.55 441.93 518.53 444.27 512.75 452.74 509.11 468.74 513.87 468.75 513.87"/><polyline class="cls-1" points="477.09 533.5 482.7 529.47 483.95 525.47 483.95 525.46"/><polyline class="cls-1" points="747.79 617.64 760.74 682.38 765.97 684.67"/><polyline class="cls-1" points="641.43 702.54 647.18 709.82 622.91 730.41 602.19 736.55 583.02 741.32"/><polyline class="cls-1" points="491.79 694 516.32 735.22 554.63 747.12 554.97 747.14 589.1 749.86 628.96 738.02 653.14 709.32"/><polyline class="cls-1" points="624.65 735.22 628.96 738.02 632.45 743.15 636.54 753.72 640.51 759.01 655.75 785.43"/><polyline class="cls-1" points="588.98 743.15 589.1 749.86 591.62 769.58 595.59 782.62 595.59 794.47 599.35 832.99 556.37 823.22 530.37 799.69 525.83 788.28 516.71 765.43 500.46 724.65"/><polyline class="cls-1" points="558.59 740.51 554.97 747.14 554.63 747.78 554.63 766.93 554.63 785.43 556.37 800.73 556.37 823.22 557.27 832.99"/><polyline class="cls-1" points="521.6 728.62 516.32 735.22 520.28 751.08"/><line class="cls-1" x1="558.59" y1="720.69" x2="554.63" y2="712.76"/><line class="cls-1" x1="522.92" y1="711.36" x2="522.92" y2="717.63"/><polyline class="cls-1" points="417.17 387.19 412.94 374.11 410.62 366.91 415.38 322.32 403.01 297.31 398.73 288.66 400.99 274.22 405.04 248.24 407.95 229.63 417.17 215.69"/><polyline class="cls-1" points="483.27 169.25 475.36 170.87 468.53 172.27 460.6 173.9 452.24 175.62 441.67 180.73 437.04 182.96 419.87 206.74 417.83 215.83 415.38 226.84 403.01 297.31"/><line class="cls-1" x1="487.25" y1="168.43" x2="483.29" y2="169.23"/><polyline class="cls-1" points="453.73 102.05 460.82 91.8 479.32 83.87"/><path class="cls-1" d="M566.94,88.1v0L550.67,50.43,571.9,88.69,550.67,42.6l25.1,46.56S573.56,41,574,42.6s4.52,47.3,4.52,47.3l2.53-43V90.57l6.61-37.09-3.87,37.83,9.82-16.69,17.83-19.81h7.93l7.93-14.54,9.24-7.93h6.89L631.26,45.56l22.62-13.22-16,13.22,35.67-19.82L639.19,49.52,678.82,29.7,639.19,56.13l35.67-15.86-9.25,5.83L639.19,62.73l17.17-7.92-23.78,25.1h11.89l22.46-26.43V48.2l2.64,5.28,7.23-12,.7-1.16-4,13.21,7.93-9.24-15.86,50.2-9.25,4,7.44,1.29,7.68,1.35,6.27-10.57-1.57,13.87-6.91,5.48-19.74,15.66-7.2.52-8.49.62-7.86.55-4,.29"/><path class="cls-1" d="M562,87.51a0,0,0,0,0,0,0c-.57-1-19.23-34-17.94-32.67s22.21,32.3,22.87,33.26"/><path class="cls-1" d="M550.67,86.16c0-1-9.25-18.14-9.25-18.14L555.2,86.7,538.78,58.77,562,87.48"/><polyline class="cls-1" points="744.55 418.23 733.68 404.55 855.98 497.41"/><polyline class="cls-1" points="719.78 482.88 778.11 460.41 763.38 441.89 744.57 418.24"/><polyline class="cls-1" points="210.56 439.88 238.7 470.98 274.94 486.84 320.25 503.35 359.96 533.5 405.11 610.89 363.44 583.3 337.49 566.11 263.79 503.35 182.05 490.8 127.88 456.45 167.09 451.46 197.94 443.71 210.56 439.88 218.89 437.36 225.65 435.31 234.98 423.18 238.86 418.14 257.52 396.69 294.35 363.97 415.38 322.32 286.43 361.32 135.81 435.31 123.98 456.45"/><path class="cls-1" d="M19.81,446.63a2.75,2.75,0,0,0-.62-.23C14.87,445.58,8,396.69,8,396.69l-7-19.51,5.28-19.82,23.78-17.17,43.6-9.25,33-18.5,81.92-33,44.92-9.25,62.09-10.57,30.39-11.89,25.11-13.21,11.67-5.29h16.07l11.89-7.92,12.21-14,15.54-36.18,7-23.78,2.23-19.82,11.9-18.5,10.57-6.6,3.47-.32,11.06-1L476.68,109,487,118.22l2.93,2.65,7.55,4.62,32.09,13.87,9.46,7.93"/><path class="cls-1" d="M405.11,610.89l10.27,28.86,23.34,69,21.88,87.75,6.83,60.29L449.33,806,411.5,727.24l-32.59-29-46.12-30.37L270,632.17,157.87,547.35l-47.39-38.24S28.86,451,19.83,446.65"/><polyline class="cls-1" points="234.98 423.18 256.04 448.52 271.63 460.41 305.61 470.98 336.63 490.8 371.47 521.19 386.63 550.26 398.73 592.92 405.11 610.86"/><polyline class="cls-1" points="1.05 377.18 12.94 358.68 32.76 344.15 73.71 330.94 56.54 345.47 20.86 362.64 8.04 396.69"/><line class="cls-1" x1="371.47" y1="521.19" x2="414.04" y2="533.5"/><polyline class="cls-1" points="801.7 586.59 801.7 586.74 801.7 595.32 801.7 620.28 803.2 613.67 803.2 640.53 805.55 617.64 820.97 642.95 832.47 648 950.24 665.69 999.72 679.73 1119.93 642.95 1197.07 637.46 1249.04 636.1"/><polyline class="cls-1" points="815.5 590.39 810.26 591.69 805.29 592.92 801.7 595.32"/><polyline class="cls-1" points="834.73 579.43 831.16 582.16 826.73 585.57 822.83 588.57 819.23 589.47 815.5 590.38"/><polyline class="cls-1" points="865.14 524.07 859.83 546.29 850.58 560.83 840.01 575.36 834.73 579.41"/><polyline class="cls-1" points="840.13 526.86 835.29 530.78 825.15 539.03 823.44 542.08 818.87 550.26 813.34 559.69 813.32 559.7"/><line class="cls-1" x1="467.43" y1="856.84" x2="470.77" y2="998.05"/><line class="cls-1" x1="873.24" y1="159.51" x2="906.68" y2="244.4"/><polyline class="cls-1" points="717.31 134.08 691.86 125.49 696.5 122.95 702.41 119.73 707.89 116.73 734.21 102.37 749.09 98.47 759.42 95.76 764.95 93.82 766.49 93.29 785.84 86.51 807.9 74.62 824.62 74.62 843.45 83.87 873.24 159.5"/><polyline class="cls-1" points="746.2 91.8 744.36 82.55 743.56 78.59 735.63 61.41 746.2 78.4 742.82 64.05 755.48 81.08 759.27 86.17 764.95 93.82"/><polyline class="cls-1" points="734.31 163.14 736.81 166.66 739.1 169.84 740.83 172.27 741.98 173.9 743.73 176.36 745.69 179.1 748.44 182.96 750.29 185.55 754.13 176.36 756.68 151.25 758.97 186.91 759.27 191.55 759.27 234.51 789.8 302.11 843.45 332.26"/><polyline class="cls-1" points="796.99 327.83 793.77 324.03 789.8 319.35 786.83 315.83 782.29 310.47 779.5 304.62 777.17 299.76 774.78 294.75 772.19 289.32 769.99 284.69 767.34 278.35 764.93 272.57 762.02 265.6 759.27 259.01 757.02 253.65 754.13 246.7 753.08 239.43 751.79 230.7 750.33 220.62 748.94 211.16 749.41 202.12 749.88 193.37 750.29 185.55 663.29 261.68 612.76 320.37"/><polyline class="cls-1" points="841.74 343.57 818.87 336.22 813.03 334.6 806.32 332.73 799.54 330.86 796.99 327.85"/><polyline class="cls-1" points="789.8 562.15 793.77 567.43 793.77 554.38 801.7 586.74 802.5 590.02 799.54 570.07 805.99 578.66 803.02 564.79 810.86 572.2 809.12 552.9 813.65 561.49 813.34 559.69 808.3 531.76 809.46 515.9 817.13 547.35 817.13 531.39 821.51 541.01 821.51 531.73 823.76 536.62 819.23 515.9 840.13 526.86 854.54 534.4 838.21 521.19 856.76 528.46 842.4 518.55 865.14 524.07 883.16 528.46 843.97 513.26 890.22 525.15 847.62 509.11 890.22 521.19 853.37 503.35 894.18 515.9 855.98 497.41 878.99 505.43 894.18 510.73 878.33 493.44 886.3 493.44 899.46 500.05 895.5 484.2 892.05 480.17 904.75 488.16 891.54 470.98 904.75 474.95 895.5 467.02 902.77 467.02 899.46 461.74 906.07 464.38 890.22 447.2 898.84 451.46 892.22 443.71 903.43 448.52 892.86 440.6 903.72 443.71 895.36 437.77 904.75 440.6 900.78 436.63 915.32 440.6 903.43 433.99 914 436.63 904.75 424.74 915.32 424.74 910.03 420.78 920.97 420.78 912.68 416.81 925.85 416.81 907.39 408.89 902.11 403.6 902.11 400.96 920.6 408.89 903.43 398.32 904.75 397 920.6 399.64 910.03 394.35 920.97 394.35 903.43 390.39 895.5 385.11 917.96 387.75 898.14 382.46 920.97 382.46 900.78 378.5 899.46 375.86 906.51 375.86 899.46 369.25 880.97 362.64 855.86 348.11 841.75 343.58"/><polyline class="cls-1" points="899.46 369.25 927.21 371.89 1024.98 400.96 1252.69 482.88 1378.84 536.62 1442.25 561.49 1442.7 561.74 1454.5 568.16 1494.66 590.02"/><polyline class="cls-1" points="1442.25 561.49 1391.73 581.97 1325.87 599.14 1249.04 636.1 1222.12 658.17 1158.09 710.7 1101.65 786.75 1026.66 907.39 999.72 950.74 988.74 998.05"/><polyline class="cls-1" points="582.85 832.99 600.21 872.34 648.44 900.57 699.71 856.84 756.88 819.03 837.39 769.58 853.37 766.76 889.96 760.33 962.09 757.06 1007.57 730.41 1056.87 736.55 1003.9 769.58 999.72 811.54 1026.66 907.39"/><polyline class="cls-1" points="799.53 749.06 785.1 744.21 756.88 734.74"/><polyline class="cls-1" points="1222.12 658.17 1227.12 646.7 1120.11 650.67 999.72 679.73 974.43 695.36 952.68 708.8 885.78 734.95 853.37 739.8 813.32 753.7 799.54 749.06"/><polyline class="cls-1" points="1454.5 568.16 1406.36 599.14 1339.46 616.09 1258.96 648 1165.03 711.36 1101.65 786.75 1206.7 728.62 1388.59 694 1494.66 646.7"/><path class="cls-1" d="M649.53,125.49l24-2,18.32,2-17-4.62s-4.16-8.84-4.16-9.24h0c.2,0,8.1,4.07,8.1,4.07l-2.62-11.34"/><polyline class="cls-1" points="502.9 273.31 505.01 266.57 512.67 260.98 517.23 257.66 522.92 253.51 529.22 248.93 535.43 244.4 540.71 240.55 546.7 236.18 553.31 231.37 559.91 226.56 565.9 222.48 572.28 218.13 578.57 213.84 584.15 210.03 588.98 206.74 586.56 199.62 583.6 190.86 580.92 182.96 578.33 175.31 576.01 168.43 573.35 165.03 569.8 160.5 562.56 151.25"/><polyline class="cls-1" points="505.01 317.79 494.12 301.45 495.41 297.31 497.29 291.29 500.16 282.12 502.9 273.32"/><polyline class="cls-1" points="691.86 171.07 641.83 183.98 588.98 206.74"/><polyline class="cls-1" points="509.71 317.73 500.16 301.45 513.51 269.36 591.62 212.03 702.41 171.07"/><polyline class="cls-1" points="516.76 317.73 506.31 301.45 526.88 271.27 602.19 215.69 713.84 171.07"/><polyline class="cls-1" points="1111.23 998.05 1135.96 947.94 1180.88 897.73 1223.16 881.88 1272.04 866.02 1388.31 847.53 1494.66 824.09"/><polyline class="cls-1" points="1494.66 435.91 1106.89 342.83 1019.79 313.68 925.85 282.25 878.99 244.4 887.35 244.4 906.68 244.4 961.56 260.91"/><polyline class="cls-1" points="1259.33 311.12 1232.41 297.91 995.91 275.45 906.68 244.4 956.28 275.45 1211.27 313.76 1302.43 332.26 1259.35 311.12"/><polyline class="cls-1" points="1232.41 297.91 1449.92 324.33 1259.35 311.12 1259.33 311.12"/><line class="cls-1" x1="1302.43" y1="332.26" x2="1449.92" y2="324.33"/><polyline class="cls-1" points="476.68 108.97 500.16 115.69 538.78 115.69 565.9 127.47 588.36 116.35"/><polyline class="cls-1" points="522.92 155.23 512.67 161.97 502.83 168.43 492.53 164.47 475.36 152.57"/><polyline class="cls-1" points="258.92 566.11 398.73 667.94 438.72 708.8"/><polyline class="cls-1" points="278.86 371.48 200.38 409.55 141.83 438.62 127.88 456.45 123.98 456.45 114.67 456.45 64.66 438.62 47.29 423.42 25.85 374.11 20.86 362.64"/><line class="cls-1" x1="294.35" y1="363.97" x2="278.87" y2="371.47"/><polyline class="cls-1" points="278.87 371.47 278.86 371.48 240.18 407.57 218.89 437.36"/><polyline class="cls-1" points="400.99 274.22 378.91 301.45 157.61 374.11 66.1 348.18 56.54 345.47 109.78 317.79 196.58 289.98 295.68 271.48 378.91 229.2"/><polyline class="cls-1" points="644.47 794.94 644.49 794.94 702.41 776 756.88 734.74 776.51 704.88 789.8 684.67 788.48 632.17"/><polyline class="cls-1" points="776.51 704.88 806.68 719 813.32 753.7 837.39 757.06 889.96 760.33"/><polyline class="cls-1" points="939.95 774.11 962.09 757.06 951.11 735.22 952.15 717.63 952.68 708.8"/><polyline class="cls-1" points="635.02 802.91 665.22 814.33 689.39 847.25 694.74 851.44 837.39 769.58 871.72 809.21 899.46 805.26 939.93 774.12"/><polyline class="cls-1" points="599.35 832.99 626.46 865.55 648.44 900.57 644.49 929.32"/><polyline class="cls-1" points="413.63 550.26 407.3 564.46 400.99 578.66 405.11 610.86 405.11 610.89"/><polyline class="cls-1" points="127.88 456.45 101.25 466.6 58.39 461.52 19.83 446.65 19.81 446.63 19.19 446.4"/><polyline class="cls-1" points="836.05 574.04 843.97 555.54 859.83 546.29 847.11 559.7 836.05 574.04 822.01 583.3 802.5 590.02"/><line class="cls-1" x1="840.13" y1="526.86" x2="843.97" y2="555.54"/><polyline class="cls-1" points="822.01 583.3 833.42 571.39 838.48 556.86 835.29 530.78"/><polyline class="cls-1" points="840.01 575.36 840.01 598.72 846.58 615.99 840.01 606.42 843.97 621.46 838.48 615.99 842.06 627.73 837.39 621.72 835.33 633.16 833.23 632.17 833.23 641.84 830.25 629.82 822.83 634.81 826.73 627.2 820.19 630.85 824.15 620.28 820.03 623.72 816.23 626.89 818.87 611.03 812.26 624.24 806.98 612.35 805.55 617.64"/><polyline class="cls-1" points="635.02 998.05 644.47 929.34 644.49 929.34 644.49 929.32 717.14 862.06 871.72 809.21"/><polyline class="cls-1" points="999.72 950.74 921.92 862.06 859.83 867.99 744.66 906.4 644.49 929.34"/><line class="cls-1" x1="386.63" y1="550.26" x2="407.3" y2="564.46"/><polyline class="cls-1" points="820.97 642.95 822.01 711.36 831.16 738.02 853.37 739.8"/><polyline class="cls-1" points="1056.87 736.55 1158.09 710.7 1165.03 688.98 1120.29 679.73 1004.59 694 952.15 717.63"/><polyline class="cls-1" points="1101.65 786.75 1130.67 806.57 1187.88 818.91 1272.04 866.02"/><polyline class="cls-1" points="1180.88 897.73 1126.71 946.62 1097.99 997.48"/><polyline class="cls-1" points="485.93 997.48 479.48 872.17 460.6 796.55 508.31 790.56"/><polyline class="cls-1" points="691.86 156.27 659.64 152.57 607.02 156.27 572.69 160.17 569.8 160.5"/><polyline class="cls-1" points="440.4 232.86 438.72 202.28 460.6 173.9"/><polyline class="cls-1" points="483.73 297.31 466.43 290.43 453.73 285.38 448.25 272.08 441.67 256.12 440.4 232.89"/><line class="cls-1" x1="494.12" y1="301.45" x2="483.73" y2="297.33"/><polyline class="cls-1" points="767.34 278.35 758.88 286.43 713.84 307.33 691.86 312.56 688.6 315.83 685.42 319.05 681.47 323.01 711.05 336.22 736.81 355.95 777.25 345.48 779.83 342.14 793.77 324.03"/><line class="cls-1" x1="420.7" y1="327.11" x2="426.45" y2="332.26"/><line class="cls-1" x1="415.38" y1="322.32" x2="420.7" y2="327.09"/><polyline class="cls-1" points="437.04 182.96 422.51 223.18 407.95 292.17 419.72 317.79 427.8 324.33"/><line class="cls-1" x1="25.85" y1="374.11" x2="66.1" y2="348.18"/><polyline class="cls-1" points="853.37 766.76 878.99 794.94 906.68 794.94 939.93 774.12 939.95 774.11"/><line class="cls-1" x1="813.32" y1="753.69" x2="837.39" y2="769.58"/><polyline class="cls-1" points="870.62 77.61 872.76 84.84 901.82 182.96 910.03 210.71 929.34 241.76 906.68 244.4"/><polyline class="cls-1" points="830.76 58.77 850.58 65.38 861.15 83.87 870.17 140.33 873.24 159.5 873.24 159.51"/><polyline class="cls-1" points="793.27 90.48 807.9 74.62 826.8 87.83 887.35 244.4"/><polyline class="cls-1" points="759.97 133.11 764.95 148.1 758.97 186.91 758.97 186.95"/><polyline class="cls-1" points="702.41 119.73 718.46 128.79 752.81 111.62 759.96 133.11"/><polyline class="cls-1" points="759.96 133.11 759.97 133.11 783.2 147.29 794.55 176.36"/><polyline class="cls-1" points="774.45 188.91 781.88 230.53 818.18 300.68 858.51 328.29 934.29 342.3"/><polyline class="cls-1" points="855.86 348.11 843.45 332.26 808.3 303.19 771.31 229.2 774.45 188.91 794.55 176.36 813.59 164.47 799.54 112.9 767.34 95.76"/><polyline class="cls-1" points="486.96 118.22 466.52 125.49 464.79 135.4 490.29 156.54 512.67 161.97"/><polyline class="cls-1" points="506.67 93.12 499.14 102.05 500.16 115.69"/><polyline class="cls-1" points="554.63 95.76 538.78 106.33 538.78 115.69"/><polyline class="cls-1" points="479.32 83.87 509.1 90.48 546.7 90.48 586.34 108.97"/><polyline class="cls-1" points="744.36 82.55 727.71 50.84 741.51 90.48 726.53 82.55 733.68 93.82 720.61 89.51 705.29 74.62 707.89 83.87 720.61 101.05 702.41 95.76 712.25 104.4 688.9 102.05 677.75 90.48 684.11 110.3 701.65 117.81"/><polyline class="cls-1" points="742.82 64.05 738.21 50.84 726.39 33.67 703.93 17.81 731.67 31.02 755.45 56.13 759.42 60.09 738.28 32.34 760.74 49.52 768 58.77 774.45 64.05 762.06 44.24 777.05 61.41 772.88 50.84 763.38 38.95 739.6 20.45 770.96 40.93 785.42 61.41 787.16 52.16 785.43 44.09 783.2 33.67 763.47 17.81 787.16 32.93 799.28 50.18 801.7 52.16 792.45 33.67 804.34 52.16 796.41 13.85 809.62 45.56 809.62 59.59 813.59 46.88 813.59 28.75 817.55 48.2 816.23 56.13 822.83 46.88 814.11 66.89"/><polyline class="cls-1" points="500.16 176.36 502.9 213.26 517.23 257.66"/><line class="cls-1" x1="479.48" y1="872.17" x2="532.17" y2="816.8"/><polyline class="cls-1" points="899.46 805.26 962.09 774.6 1003.9 769.58 1017.14 749.86 965.52 764.29 899.46 805.26 921.92 862.06"/><polyline class="cls-1" points="1187.88 818.91 1132.13 794.94 1206.7 728.62 1258.96 648 1325.87 599.14"/><polyline class="cls-1" points="789.8 684.67 822.01 711.36 806.68 719 785.1 744.21 747.79 786.75 723.66 803.35 760.74 785.43 799.53 749.06 799.54 749.06"/><line class="cls-1" x1="665.21" y1="814.32" x2="723.66" y2="803.35"/><polyline class="cls-1" points="904.75 424.74 793.77 350.75 801.64 347.58 811.6 343.57 818.87 336.22 904.75 397"/><polyline class="cls-1" points="681.47 323.01 711.05 327.29 737.62 348.11 777.25 340.16 789.8 319.35"/><polyline class="cls-1" points="736.81 355.95 759.27 357.86 782.29 348.11 796.99 327.85 796.99 327.83"/><polyline class="cls-1" points="782.29 348.11 791.27 345.42 801.64 342.3 808.76 340.16 813.03 334.6"/><line class="cls-1" x1="791.27" y1="345.4" x2="799.54" y2="330.86"/><line class="cls-1" x1="801.64" y1="342.3" x2="806.32" y2="332.73"/><polyline class="cls-1" points="606.16 312.44 657.89 257.66 706.57 215.69 748.44 182.96"/><polyline class="cls-1" points="727.84 279.49 735.63 272.31 754.13 246.7"/><polyline class="cls-1" points="691.86 312.56 701.28 303.9 711.87 294.17 727.83 279.49"/><polyline class="cls-1" points="784.52 90.48 801.64 98.79 816.23 127.47 837.37 205.42 854.37 240.14"/><polyline class="cls-1" points="872.76 84.84 882.12 90.48 885.78 114.18 910.03 210.71"/><polyline class="cls-1" points="870.17 140.33 888.89 175.03 901.82 182.96"/><line class="cls-1" x1="813.59" y1="164.47" x2="811.55" y2="214.01"/><polyline class="cls-1" points="390.8 221.28 405.04 248.24 377.59 291.3 226.17 324.33 146.38 353.4 56.54 345.47"/><line class="cls-1" x1="925.85" y1="282.25" x2="930.04" y2="328.29"/><line class="cls-1" x1="1047.11" y1="374.11" x2="1494.67" y2="521.19"/><line class="cls-1" x1="157.61" y1="374.11" x2="47.29" y2="423.42"/><polyline class="cls-1" points="1442.48 562.15 1406.36 599.14 1388.59 694"/><polyline class="cls-1" points="336.63 490.8 359.96 533.5 363.46 583.3 363.44 583.3 258.92 566.11 182.05 490.8"/><line class="cls-1" x1="238.7" y1="470.98" x2="263.79" y2="503.35"/><polyline class="cls-1" points="530.85 316.4 617.31 222.91 736.81 166.66"/><polyline class="cls-1" points="612.76 218.63 525.13 301.66 524.08 317.73 513.51 301.45 535.55 274.93 612.76 218.63 721.1 171.07"/><polyline class="cls-1" points="542.63 317.53 624.65 225.24 739.1 169.84"/><polyline class="cls-1" points="553.31 319.05 630.84 227.88 740.83 172.27"/><polyline class="cls-1" points="582.85 310.47 647.06 231.2 743.73 176.36"/><polyline class="cls-1" points="590.3 315.08 659.45 237.67 745.69 179.1"/><polyline class="cls-1" points="618.38 322.32 670.7 265.6 749.88 193.37"/><line class="cls-1" x1="749.41" y1="202.12" x2="625.98" y2="324.96"/><line class="cls-1" x1="633.84" y1="327.69" x2="748.94" y2="211.16"/><line class="cls-1" x1="643.15" y1="330.94" x2="750.33" y2="220.62"/><polyline class="cls-1" points="751.79 230.7 659.81 324.33 669.58 328.29 753.08 239.43"/><polyline class="cls-1" points="701.28 303.9 713.84 301.58 756.77 282.05 764.93 272.57"/><polyline class="cls-1" points="711.87 294.17 753.08 278.35 762.02 265.6"/><polyline class="cls-1" points="727.83 279.49 727.84 279.49 751.45 272.57 759.27 259.01"/><polyline class="cls-1" points="735.63 272.31 748.44 267.61 757.02 253.65"/><polyline class="cls-1" points="876.86 79.97 873.23 74.39 873.07 74.16 871.18 71.24 868.35 66.89 855.86 58.77 851.99 29.56 850.58 54.8 848.15 29.56 837.39 0.34 843.45 29.62 845 52.82 834.73 46.88 846.75 58.77"/><polyline class="cls-1" points="868.35 66.89 869.22 61.41 871.67 66.89 874.36 53.48 873.07 74.16 873.04 74.62 873.23 74.39 878.99 66.89 876.86 79.97"/><polyline class="cls-1" points="886.97 89.83 899.98 77.61 888.47 93.09"/><path class="cls-1" d="M889.42,95.14l8.72-6L891,98.46s14.38-9.3,12.76-8-11.09,13.37-11.52,13.91"/><path class="cls-1" d="M892.88,109.13s38.29,3.81,35.65,3.81-35,.36-35,.36L910.77,119l15.12,12.45-19.21-11.16L894,116.7"/><polyline class="cls-1" points="845 52.82 848.53 56.68 854.37 63.05"/><line class="cls-1" x1="850.58" y1="54.81" x2="855.86" y2="58.77"/><line class="cls-1" x1="871.67" y1="66.89" x2="871.18" y2="71.24"/><line class="cls-1" x1="816.23" y1="56.13" x2="810.48" y2="68.51"/><line class="cls-1" x1="809.62" y1="59.59" x2="806.9" y2="70.1"/><line class="cls-1" x1="804.34" y1="52.16" x2="802.99" y2="71.68"/><line class="cls-1" x1="801.69" y1="52.16" x2="800.02" y2="72.81"/><polyline class="cls-1" points="783.2 33.67 796.41 53.48 796.41 74.2"/><polyline class="cls-1" points="785.42 44.06 785.43 44.09 791.69 54.8 792.5 75.71"/><line class="cls-1" x1="787.16" y1="52.16" x2="787.52" y2="77.61"/><line class="cls-1" x1="785.42" y1="61.41" x2="781.14" y2="79.54"/><polyline class="cls-1" points="777.05 61.41 779.24 65.38 776.09 81.07 776.09 81.08"/><line class="cls-1" x1="774.45" y1="64.05" x2="771.31" y2="82.52"/><polyline class="cls-1" points="759.42 60.09 768.04 66.89 766 84.14"/><polyline class="cls-1" points="726.39 33.67 756.5 64.89 761.73 69.06 759.27 86.17 766 84.14 771.31 82.52 776.09 81.07 781.14 79.55 781.14 79.54 787.52 77.61 792.5 75.71 796.41 74.2 800.02 72.81 802.99 71.68 805.66 70.66 806.9 70.11 810.48 68.52 814.11 66.89 817.55 65.38 830.76 58.77 846.75 58.77 854.37 63.05 858.51 65.38 870.62 77.61 876.86 79.97 883.61 82.55 886.97 89.83 888.47 93.09 889.42 95.14 890.96 98.46 891.54 99.73 892.2 104.39 892.2 104.4 892.88 109.13 893.48 113.3 893.95 116.7 893.97 116.7 894.18 118.22 901.46 134.08 901.46 146.69 910.03 210.71 929.85 237.13 961.56 260.91 1241.65 287.34 1438.77 310.47 1494.66 324.33"/><polyline class="cls-1" points="738.21 50.84 755.98 72.81 755.48 81.08"/><line class="cls-1" x1="746.2" y1="78.4" x2="759.42" y2="95.76"/><line class="cls-1" x1="741.51" y1="90.48" x2="742.25" y2="93.82"/><line class="cls-1" x1="733.68" y1="93.82" x2="735.63" y2="97.22"/><line class="cls-1" x1="707.89" y1="83.87" x2="726.39" y2="101.95"/><line class="cls-1" x1="720.61" y1="101.05" x2="721.79" y2="104.35"/><line class="cls-1" x1="712.25" y1="104.4" x2="715.99" y2="107.38"/><line class="cls-1" x1="720.61" y1="89.51" x2="731.06" y2="99.55"/><polyline class="cls-1" points="688.9 102.05 707.89 111.62 707.89 116.73"/><path class="cls-1" d="M678.8,115.69c.27,0,17.7,7.26,17.7,7.26l5.15-5.14,6.24-6.19,8.1-4.24,5.8-3,3.79-2,.81-.42,4.67-2.4,4.57-2.33,6.62-3.4,4-2,2.88,6.67"/><polyline class="cls-1" points="712.36 321.63 739.1 342.3 775.84 334.6 786.83 315.83"/><line class="cls-1" x1="711.89" y1="321.29" x2="712.18" y2="321.52"/><line class="cls-1" x1="685.42" y1="319.05" x2="711.87" y2="321.27"/><path class="cls-1" d="M711.87,321.27l0,0a1.55,1.55,0,0,0,.29.23l.18.12c3.72,2.44,27.6,15.88,27.6,15.88l34.49-7.32,7.84-19.73,61.15,21.79,93,17.17-2.17-7.13-4.25-14L978.74,360l68.37,14.11-27.32-60.43"/><polyline class="cls-1" points="737.39 303.06 762.02 292.44 769.99 284.69"/><polyline class="cls-1" points="688.6 315.83 709.62 313.19 715.64 312.44 721.39 309.96 726.39 307.8 732.21 305.29 737.38 303.06"/><polyline class="cls-1" points="709.62 313.19 739.96 332.26 772.63 325.65 779.5 304.62"/><path class="cls-1" d="M715.65,312.44c1.49,0,23.45,13.45,23.45,13.45l30.2-5.75,7.87-20.38"/><polyline class="cls-1" points="721.39 309.96 739.1 320.59 768.04 315.28 774.78 294.75"/><polyline class="cls-1" points="726.39 307.8 739.1 316.09 766.29 310.47 769.31 299.65 770.38 295.79 772.19 289.32"/><polyline class="cls-1" points="732.21 305.29 739.6 311.12 763.38 305.83 769.3 299.65"/><polyline class="cls-1" points="737.38 303.06 737.39 303.06 742.44 305.38 770.38 295.79"/><line class="cls-1" x1="756.77" y1="407.57" x2="894.18" y2="510.73"/><line class="cls-1" x1="671.48" y1="101.05" x2="642.33" y2="126.01"/><line class="cls-1" x1="663.8" y1="99.7" x2="633.84" y2="126.61"/><polyline class="cls-1" points="673.54 53.48 656.36 98.41 625.98 127.18"/><polyline class="cls-1" points="669.58 53.48 649.76 99.56 625.98 120.87"/><polyline class="cls-1" points="666.93 53.48 643.15 98.26 625.39 115.69"/><polyline class="cls-1" points="644.47 79.91 636.47 97.22 624.65 108.97"/><polyline class="cls-1" points="632.58 79.91 625.98 95.76 616.91 103.35 619.13 111.62 610.12 124.5 592.64 132 588.36 116.35 586.34 108.97 554.63 95.76 530.85 93.12 506.67 93.12 479.32 83.87 489.89 77.27 505.75 74.62 542.63 85.19 550.67 86.16 555.2 86.7 562.02 87.5 566.94 88.1 571.9 88.69 575.77 89.16 578.52 89.9 583.79 91.31 588.36 92.54 593.1 93.82 598.12 95.17 601.43 96.07 605.7 97.22 610.12 98.41 613.75 101.05 616.91 103.35 620.41 105.88 624.65 108.97 625.39 115.69 625.98 120.87 622.01 127.47 610.12 131.44 599.55 134.08 592.64 132 586.34 130.11 588.98 139.36 578.41 137.72 578.41 142 574.45 139.36 574.45 144.65 570.49 143.21 570.49 145.97 565.9 149.02 562.56 151.25 550.22 143.33 544.06 139.36 545.38 143.33 538.78 142 538.99 147.29 533.49 147.29 528.21 155.22 522.92 155.23 517.23 163.51 512.67 170.16 508.4 176.36 505.01 176.36 500.16 176.36 497.82 176.36 492.64 172.27 489.57 169.84 487.45 168.18 475.36 158.63 475.36 152.57 445.13 125.49 450.25 102.37"/><polyline class="cls-1" points="638.29 79.91 630.84 97.88 620.41 105.88"/><polyline class="cls-1" points="565.9 127.47 565.9 149.02 572.28 156.54 610.07 151.25 659.81 147.29 695.87 152.57"/><line class="cls-1" x1="509.1" y1="90.48" x2="542.63" y2="85.19"/><line class="cls-1" x1="744.57" y1="405.97" x2="878.99" y2="505.43"/><line class="cls-1" x1="756.93" y1="400.37" x2="878.32" y2="493.44"/><line class="cls-1" x1="758.5" y1="396.69" x2="886.3" y2="493.44"/><line class="cls-1" x1="763.38" y1="390.39" x2="899.46" y2="500.05"/><line class="cls-1" x1="771.31" y1="386.43" x2="895.5" y2="484.2"/><line class="cls-1" x1="891.54" y1="470.98" x2="773.95" y2="382.46"/><line class="cls-1" x1="781.88" y1="377.18" x2="895.5" y2="467.02"/><line class="cls-1" x1="785.84" y1="373.22" x2="899.46" y2="461.74"/><line class="cls-1" x1="890.22" y1="447.2" x2="787.16" y2="369.25"/><line class="cls-1" x1="791.13" y1="367.93" x2="892.22" y2="443.71"/><line class="cls-1" x1="799.54" y1="363.97" x2="900.79" y2="436.63"/><line class="cls-1" x1="910.03" y1="420.78" x2="801.64" y2="347.58"/><line class="cls-1" x1="811.6" y1="343.57" x2="907.39" y2="408.89"/><polyline class="cls-1" points="841.74 343.57 841.75 343.58 898.14 382.46"/><line class="cls-1" x1="899.46" y1="375.86" x2="880.97" y2="362.65"/><polyline class="cls-1" points="853.37 503.35 744.57 418.24 744.55 418.23"/><line class="cls-1" x1="847.62" y1="509.11" x2="763.38" y2="441.89"/><line class="cls-1" x1="843.97" y1="513.26" x2="778.11" y2="460.41"/><polyline class="cls-1" points="784.52 486.84 813.04 510.73 819.23 515.9"/><line class="cls-1" x1="838.21" y1="521.19" x2="782.29" y2="477.64"/><line class="cls-1" x1="780.12" y1="468.69" x2="842.4" y2="518.55"/><path class="cls-1" d="M809.46,515.9c0-.11-24-18.49-24-18.49"/><polyline class="cls-1" points="784.37 503.35 803.98 518.55 809.12 552.9"/><polyline class="cls-1" points="782.63 506.66 798.96 521.19 803.02 564.79"/><polyline class="cls-1" points="782.01 517.44 793.77 526.86 799.54 570.07"/><polyline class="cls-1" points="793.77 554.38 789.8 530.78 781.67 523.38"/><polyline class="cls-1" points="781.27 530.25 785.84 537.04 793.77 567.43"/><polyline class="cls-1" points="840.01 606.42 834.73 597.82 834.73 579.43 834.73 579.41"/><polyline class="cls-1" points="831.16 582.16 830.76 599.14 838.48 615.99"/><polyline class="cls-1" points="837.39 621.72 826.73 601.43 826.73 585.57"/><polyline class="cls-1" points="825.48 607.93 822.4 602.3 822.83 588.57"/><line class="cls-1" x1="828.61" y1="613.67" x2="825.48" y2="607.94"/><polyline class="cls-1" points="833.23 632.17 833.42 622.5 831.16 618.36 828.61 613.69"/><line class="cls-1" x1="803.2" y1="613.67" x2="805.29" y2="592.92"/><line class="cls-1" x1="806.98" y1="612.35" x2="810.26" y2="591.69"/><polyline class="cls-1" points="812.26 624.24 815.5 590.39 815.5 590.38"/><polyline class="cls-1" points="818.87 611.03 819.23 589.47 819.23 589.46"/><line class="cls-1" x1="822.4" y1="602.3" x2="820.03" y2="623.71"/><polyline class="cls-1" points="824.15 620.28 825.48 607.94 825.48 607.93"/><polyline class="cls-1" points="826.73 627.2 828.61 613.69 828.61 613.67"/><line class="cls-1" x1="830.25" y1="629.82" x2="831.16" y2="618.36"/><polyline class="cls-1" points="639.19 62.73 624.65 81.08 620.41 94.53 613.75 101.05"/><polyline class="cls-1" points="639.19 56.13 619.38 79.91 610.12 98.41 586.34 108.97"/><polyline class="cls-1" points="639.19 49.52 615.38 78.4 605.7 97.22"/><polyline class="cls-1" points="637.87 45.56 611.89 76.61 601.43 96.07"/><polyline class="cls-1" points="631.26 45.56 622.13 57.01 605.7 77.61 598.12 95.17"/><polyline class="cls-1" points="619.37 54.8 601.43 76.61 593.1 93.82"/><polyline class="cls-1" points="614.69 54.8 595.59 78.59 588.36 92.54"/><line class="cls-1" x1="491.4" y1="295.67" x2="495.41" y2="297.31"/><polyline class="cls-1" points="468.53 172.27 445.13 202.12 447.61 255.63 458.18 282.05 466.52 285.47 473.27 288.24 483.29 292.34 491.4 295.66"/><polyline class="cls-1" points="475.36 170.87 452.24 202.12 453.73 253.65 466.52 285.47"/><polyline class="cls-1" points="473.27 288.24 459.97 253.65 457.88 202.12 483.27 169.25 483.29 169.24"/><polyline class="cls-1" points="489.57 169.84 463.8 203.84 466.43 252.27 483.29 292.34"/><polyline class="cls-1" points="491.4 295.67 491.4 295.66 472.72 251.66 470.27 204.54 492.64 172.27"/><polyline class="cls-1" points="497.82 176.36 494.12 180.88 487.25 189.28 479.32 198.96 477.09 251.23 497.29 291.29 497.82 292.34"/><polyline class="cls-1" points="487.25 189.28 483.29 250.36 500.16 282.12"/><polyline class="cls-1" points="494.12 180.88 489.57 250.36 502.9 273.31 502.9 273.32"/><polyline class="cls-1" points="500.16 176.36 496.23 248.24 505.01 266.57"/><polyline class="cls-1" points="502.9 213.26 502.9 244.4 512.67 260.98"/><polyline class="cls-1" points="832.84 663.44 832.85 663.44 873.58 682.38 952.15 686.79 974.43 695.35 925.85 704.88 853.22 700.87 833.4 686.34 832.85 663.44 832.47 648"/><path class="cls-1" d="M537,326.89c-1.74-2.52-6.16-10.49-6.16-10.49h6.83l6.38,9.25-1.43-8.12,6.54,9.44v-7.62l10.3,8.63-6.16-8.93,9.25,5.28,10.32-4,2.89-6.61v6.61l7.08-9.9-2.67,9.9,10.12-5.29V325.8l15.86-13.36,6.6,7.93,5.62,1.95L626,325l7.86,2.74,9.31,3.24,26.42-2.65,11.9-5.28,25.1,18.81,18.5,19.5L740.92,364h19.42l22.86-11.89,10.57-1.33L799.54,364l-8.41,4-9.25-4,5.28,5.28L774,364l11.89,9.25L770,367.93l11.89,9.25-17.18-4,9.25,9.24-21.14-4,18.5,7.93-26.43-2.65,18.5,6.61-21.14,1.32,16.26,5H740l17,3.68-18.65.59,18.49,6.61-12.2-1.6h0l-10.87-1.42-34,33.22"/><path class="cls-1" d="M537,326.89c.46.39.7.65.67.74S537.39,327.46,537,326.89Z"/><path class="cls-1" d="M441.67,180.73l-6,20.65-7.84,26.79-13.58,66,12.24,20.91,12.27,9.25,10.61,1.39,10.61,1.37,8.81,1.15,11.76-3.91,8.22-2.73,5.39-1.8,6-2H505l11.31,15.79,7.92,4-14.53-19.82,18.5,14.54-11.45-14.54,15.41,13.22-8.09-13.22s10.2,6.84,12.93,9.17"/><polyline class="cls-1" points="427.8 127.47 438.72 168.43 452.24 175.62 438.72 202.28 422.51 295.79 434.19 312.82 449.33 325.7"/><polyline class="cls-1" points="440.4 232.86 440.4 232.89 432.1 297.31 442.2 312.44 459.94 327.09"/><polyline class="cls-1" points="441.67 256.12 441.67 297.31 455.45 315.08 468.75 328.24"/><polyline class="cls-1" points="448.25 272.08 451.18 297.31 464.79 312.44 480.51 324.33"/><polyline class="cls-1" points="453.73 285.38 463.8 298.2 488.73 321.6"/><line class="cls-1" x1="466.43" y1="290.43" x2="494.12" y2="319.8"/><polyline class="cls-1" points="483.73 297.31 483.73 297.32 500.16 317.79"/><line class="cls-1" x1="817.13" y1="531.39" x2="813.04" y2="510.73"/><polyline class="cls-1" points="505.01 176.36 508.69 213.26 522.92 253.51"/><polyline class="cls-1" points="508.4 176.36 515.72 211.16 529.22 248.93"/><line class="cls-1" x1="512.67" y1="170.16" x2="535.43" y2="244.4"/><line class="cls-1" x1="517.23" y1="163.51" x2="540.7" y2="240.55"/><line class="cls-1" x1="522.92" y1="155.23" x2="546.7" y2="236.18"/><line class="cls-1" x1="528.21" y1="155.22" x2="553.31" y2="231.37"/><line class="cls-1" x1="533.49" y1="147.29" x2="559.91" y2="226.56"/><line class="cls-1" x1="538.99" y1="147.29" x2="565.9" y2="222.48"/><line class="cls-1" x1="545.38" y1="143.33" x2="572.28" y2="218.13"/><line class="cls-1" x1="550.22" y1="143.33" x2="578.57" y2="213.84"/><line class="cls-1" x1="562.56" y1="151.25" x2="584.15" y2="210.03"/><polyline class="cls-1" points="573.35 165.03 660.51 159.51 691.86 162.27"/><polyline class="cls-1" points="691.86 167.44 644.13 165.03 576.01 168.43"/><polyline class="cls-1" points="663.76 173.25 623.57 176.36 580.92 182.96"/><polyline class="cls-1" points="578.33 175.31 645 170.16 691.86 171.07 663.8 173.24"/><polyline class="cls-1" points="583.6 190.86 663.76 173.25 663.8 173.24"/><line class="cls-1" x1="586.56" y1="199.62" x2="641.83" y2="183.98"/><polyline class="cls-1" points="420.7 327.09 420.7 327.11 412.94 374.11"/><polyline class="cls-1" points="570.49 145.97 576.01 151.25 659.81 140.09 698.84 149.84 698.64 160.5 713.84 164.12 731.67 145.97 734.31 163.14 721.1 171.07 713.84 171.07 702.41 171.07 691.86 171.07 691.86 167.44 691.86 162.27 691.86 156.27 695.87 152.57 695.88 152.57 698.84 149.84 703.91 145.15 707.88 141.49 713.08 136.68 717.31 134.08 717.32 134.08 740.92 119.54 752.81 111.62 767.34 95.76 784.52 90.48 793.27 90.48 797.71 90.48 813.59 97.08 840.01 140.68 878.99 244.4 854.37 240.16 821.51 234.49 811.55 214.01 823.06 185.55 813.59 164.47"/><polyline class="cls-1" points="574.45 144.65 659.81 134.59 703.91 145.15 703.93 145.15"/><polyline class="cls-1" points="588.98 139.36 642.33 131.2 659.81 131.2 667.99 131.2 707.88 141.49 707.89 141.49"/><polyline class="cls-1" points="713.08 136.68 676.18 127.47 642.24 128.82 635.11 129.1 599.55 134.08"/><line class="cls-1" x1="673.58" y1="724.65" x2="665.21" y2="724.8"/></g></g></svg>