<svg xmlns="http://www.w3.org/2000/svg" viewBox="0 0 1587 1080"><defs><style>.cls-1{fill:none;stroke:#f87171;stroke-miterlimit:10;stroke-width:2px;}</style></defs><g id="lines"><polyline class="cls-1" points="739.54 879.9 750.82 870.38 784.45 842.02 855.8 781.86 861.04 769.63 883.54 717.13 884.86 647.1 875.96 621.58 876.33 615.21 876.73 608.34 877.07 602.39 877.69 591.61 873.17 581.04 879.43 588.31 873.17 572.44 880.48 582.36 873.17 562.68 879.58 571.79 877.35 562.6 875.18 553.64 873.17 545.37"/><polyline class="cls-1" points="526.38 698.64 562.49 793.75 603.37 875.51 611.38 891.52 627.23 901.75 652.33 917.95 677.91 917.95 694.41 917.95 730.09 887.86 739.53 879.9"/><polyline class="cls-1" points="509.27 610.86 509.1 618.46 508.7 635.21 508.32 651.06 522.43 688.22 526.37 698.63"/><polyline class="cls-1" points="563.81 485.32 530.78 472.43 533.78 409.28 522.86 409.28 521.52 417.21 512.25 472.15 510.45 482.8 505.68 511.02 505.68 536.41 506.56 539 514.27 561.63 509.64 595.57 509.27 610.85"/><polyline class="cls-1" points="666.87 707.88 699.47 732.95 718.39 747.51 759.35 775.26 771.24 795.08 768.64 809.61 768.6 795.08 758.03 777.9 714.43 750.15 708.72 752.89 659.38 776.54 651.01 780.54 603.8 788.42 603.45 788.47"/><polyline class="cls-1" points="620.89 732.32 608.05 740.91 602.13 744.87 594.2 736.61 585.85 727.91"/><polyline class="cls-1" points="644.75 752.81 647.05 756.76 642.82 752.81 620.89 732.32 623.27 669.56 627.23 606.58 612.7 600.86 604.77 603.5 600.33 620.68 594.2 644.46 587.61 710.4 585.85 727.91 584.16 744.87 583.63 750.15"/><polyline class="cls-1" points="587.61 710.4 580.04 704.81 577.02 702.59 568.97 712.25 563.81 718.45 563.81 727.91 563.81 734.12 568.97 738.29 583.63 750.15 598.16 764.69 621.95 767.33 647.05 756.76 668.19 756.76 675.59 752.81 688 746.19 690.65 735.62 666.87 707.88 649.69 717.13 647.05 722.41 637.8 740.91 644.74 752.8"/><polyline class="cls-1" points="574.73 767.33 595.52 809.61 615.34 836.03 649.69 851.89 686.68 854.53 727.51 828.11 751.29 796.81"/><path class="cls-1" d="M586.87,779l16.93,9.46,14.18,7.9s30.39,1.4,31.71,1.4,41-7.68,41-7.68l48.88-2.89,8.67-.77,12.07,9.28v14.09L735.57,844l-44.92,35.46-39.22,6.26-30.54-12.44"/><line class="cls-1" x1="615.47" y1="812.19" x2="586.85" y2="778.96"/><polyline class="cls-1" points="748.2 794.27 719.71 820.18 684.04 828.11 677.96 827.58 663.01 826.28 653.65 825.46 651.43 824.75 635.7 819.69 616.66 813.57 615.47 812.2"/><polyline class="cls-1" points="613.81 799.88 615.47 812.18 615.47 812.2"/><line class="cls-1" x1="633.9" y1="803.95" x2="635.7" y2="819.69"/><polyline class="cls-1" points="655.73 805.05 655.73 805.06 657.43 819.9 657.62 821.5 651.43 824.75"/><polyline class="cls-1" points="675.07 799.61 676.13 810.41 676.3 812.2 664.45 819.69 657.43 819.9"/><polyline class="cls-1" points="685.68 807.97 692.19 803.95 692.19 799.88 692.19 794.77"/><polyline class="cls-1" points="676.11 810.41 676.13 810.41 681.74 810.41 685.68 807.98"/><polyline class="cls-1" points="692.19 799.88 700.66 799.4 706.7 799.04 709.14 796.4 709.14 794.77 709.14 790.65"/><polyline class="cls-1" points="709.14 794.77 714.47 791.06 716.21 789.84"/><polyline class="cls-1" points="664.45 819.69 664.08 821.37 663.01 826.27"/><path class="cls-1" d="M664.08,821.37c1.46.13,14,4.9,14,4.9l9-6.58-.3-2.56L685.68,808h0"/><polyline class="cls-1" points="686.79 817.13 697.25 821.5 703.86 813.57 703.16 810.44 700.66 799.4"/><polyline class="cls-1" points="703.16 810.44 715.71 811.59 718.72 805.05 717.97 802.59 714.47 791.06"/><polyline class="cls-1" points="717.97 802.59 728.74 799.88 730.09 795.27 725.79 788.73"/><polyline class="cls-1" points="604.77 603.5 578.35 569.15 559.85 561.22 525.5 538.76 513.22 536.41 506.56 539"/><polyline class="cls-1" points="559.85 561.22 567.78 553.29 517.57 513.66 505.68 511.02"/><polygon class="cls-1" points="649.69 555.94 672.15 561.22 735.97 550.65 784.45 559.9 776.64 545.43 776.58 545.3 771.77 536.41 736.89 529.51 649.69 555.94"/><polyline class="cls-1" points="536.99 603.5 539.33 610.62 540.03 612.75 544.88 618.77"/><polyline class="cls-1" points="533.78 584.62 533.78 593.68 536.99 603.49"/><polyline class="cls-1" points="539.33 610.62 542.66 603.5 547.96 599.54 555.66 600.86 565.13 606.14 570.42 612.75 572.15 618.46"/><polygon class="cls-1" points="754 620.68 751.12 620.68 727.64 637.85 707.82 641.82 695.71 640.93 690.65 640.56 675.86 628.6 664.22 628.6 673.47 615.39 677.95 612.54 688 606.14 721.08 606.14 735.16 610.85 736.89 611.43 746.94 618.77 754 620.68"/><path class="cls-1" d="M678,612.54c-.51.21,4.77,16.06,4.77,16.06l4.32,3.7,4.93,4.23,4,1.32h14l9.79-6,19.82-13.38-4.37-7.61"/><polyline class="cls-1" points="638.67 622 647.05 681.45 647.05 702.24 647.05 722.41"/><polyline class="cls-1" points="649.69 717.13 654.53 717.13 664.22 717.13 664.45 717.13 677.91 736.39 675.59 752.81"/><polyline class="cls-1" points="563.81 727.91 554.34 738.29 568.97 767.33 574.73 767.33 586.85 778.96 586.87 778.96 598.16 789.79 613.81 799.88 617.98 802.58 633.9 803.95 653.65 805.64 655.73 805.06 675.07 799.61 692.19 794.77 705.18 791.11 709.14 790.65 716.21 789.84 716.23 789.83 725.79 788.73 736.49 787.49 739.53 787.15 748.2 794.27 751.29 796.81 754 799.04 751.42 809.61 731.61 838.67 690.65 867.57 649.69 870.38 628.55 865.1 611.77 850.38"/><polyline class="cls-1" points="579.01 610.42 585.85 615.64 583.63 618.03 574.54 618.03 572.15 618.46 559.85 620.68 544.88 618.77 536.73 617.73 528.14 608.79 522.86 591.61 522.86 587.65 522.86 586.33"/><line class="cls-1" x1="563.81" y1="598.82" x2="579.01" y2="610.41"/><polyline class="cls-1" points="557.81 594.25 546.64 586.33 528.14 579.72 516.25 580.71 516.25 594.25 522.86 587.65 528.14 582.36 533.78 584.62 557.81 594.25 563.8 598.82"/><polyline class="cls-1" points="664.22 628.6 660.26 615.39 677.91 588.31 716.23 579.72 760.27 588.31 794.77 622 778.04 620.68"/><line class="cls-1" x1="585.85" y1="615.64" x2="592.27" y2="613.21"/><polyline class="cls-1" points="784.45 559.9 797.47 579.72 813.52 604.16 818.8 632.3 818.8 666.92 805.57 644.46 784.45 647.87"/><polyline class="cls-1" points="510.44 482.8 510.45 482.8 530.78 477.99 563.81 485.32 567.78 553.29 578.35 569.15"/><polygon class="cls-1" points="633.78 569.96 607.41 581.04 578.35 569.15 572.15 481.65 608.16 485.32 654.53 481.65 637.69 553.29 633.78 569.96"/><path class="cls-1" d="M754,620.68h24L754,609s-24-4.18-27.18-5.5-40.77,0-40.77,0l-15.22,9.25-6.61,15.85L676.11,651l19.16,15.16L724,668.25,759.35,655l25.1-7.16,19.82,8.48,9.25,21.14,5.2,13.88,2.73,7.26,10.42-60.78-5.14-43.6-11.89-26.42-38.2-22.4-.11-.06.05-.07,18.19-22.58L789.54,511l-18.3-10L724,489.51l-50.46,2.09-23.87,64.34-12-2.64"/><polyline class="cls-1" points="594.2 736.61 592.27 749.8 598.16 764.69"/><polyline class="cls-1" points="608.05 740.91 617.98 756.1 642.82 752.81"/><polyline class="cls-1" points="568.97 721.05 574.73 736.61 584.16 744.87"/><polyline class="cls-1" points="736.89 529.51 724.02 489.51 666.87 481.65 657.62 409.28 725.9 320.69 837.04 258.85"/><line class="cls-1" x1="530.78" y1="477.99" x2="517.57" y2="513.66"/><polyline class="cls-1" points="608.16 485.32 607.41 581.04 612.7 600.86 595.22 727.91 602.13 744.87 602.13 755.37 621.95 767.33"/><polyline class="cls-1" points="699.47 732.95 700.66 752.81 657.91 773.49 627.23 778.96 595.22 771.49 574.73 757.63 574.73 767.33"/><polyline class="cls-1" points="526.37 698.63 526.38 698.64 549.28 715.8 568.97 712.25"/><line class="cls-1" x1="800.31" y1="710.52" x2="818.72" y2="691.37"/><polyline class="cls-1" points="804.27 656.35 769.15 698.63 739.53 732.95 813.52 740.91"/><polyline class="cls-1" points="784.45 647.87 708.72 681.85 666.87 707.88"/><polyline class="cls-1" points="708.72 752.89 742.15 778.96 748.2 786.38"/><polyline class="cls-1" points="805.57 644.46 794.77 622 813.52 604.16"/><line class="cls-1" x1="690.65" y1="640.56" x2="695.27" y2="666.17"/><line class="cls-1" x1="707.82" y1="641.82" x2="724.02" y2="668.25"/><line class="cls-1" x1="727.64" y1="637.85" x2="759.35" y2="655.03"/><line class="cls-1" x1="574.54" y1="618.03" x2="580.99" y2="635.21"/><line class="cls-1" x1="559.85" y1="620.68" x2="544.88" y2="644.22"/><line class="cls-1" x1="536.73" y1="617.73" x2="521.23" y2="632.3"/><polyline class="cls-1" points="592.27 613.21 589.88 601.69 559.85 571.79 539.33 557.46 525.5 555.94 514.27 561.63"/><polyline class="cls-1" points="528.14 608.79 509.27 610.85 509.27 610.86 514.27 618.77 521.23 632.3 544.88 644.22 545.24 644.13 580.99 635.21 593.37 618.46 592.28 613.21"/><polyline class="cls-1" points="686.05 603.5 677.91 588.31 724.02 565.12 789.74 582.36 797.47 579.72"/><line class="cls-1" x1="716.23" y1="579.72" x2="726.82" y2="603.5"/><polyline class="cls-1" points="754 609 760.27 588.31 789.74 582.36"/><line class="cls-1" x1="546.64" y1="586.33" x2="559.85" y2="571.79"/><polyline class="cls-1" points="528.14 579.72 539.33 557.46 513.22 536.41"/><line class="cls-1" x1="525.5" y1="555.94" x2="516.25" y2="580.71"/><polyline class="cls-1" points="580.99 635.21 580.99 665.6 577.02 702.59"/><polyline class="cls-1" points="592.27 613.21 592.28 613.21 600.33 620.68"/><line class="cls-1" x1="660.26" y1="615.39" x2="638.67" y2="622"/><polyline class="cls-1" points="677.91 588.31 672.15 561.22 633.78 569.96 627.23 606.58 638.67 622 646.32 632.3 664.45 663.62 708.72 681.85 769.15 698.63 800.31 710.52 813.52 740.91 810.97 788.73"/><polyline class="cls-1" points="545.32 644.46 538.71 673.52 549.28 715.8 554.34 738.29 562.49 793.75"/><line class="cls-1" x1="568.96" y1="767.33" x2="625.43" y2="884.64"/><polyline class="cls-1" points="522.86 688.06 538.71 673.52 580.99 665.6 594.2 644.46 580.04 694.91 580.04 704.81 568.97 721.05 568.97 738.29 574.73 757.63"/><line class="cls-1" x1="521.23" y1="632.3" x2="508.32" y2="651.06"/><polyline class="cls-1" points="831.87 637.85 842.85 702.59 842.85 769.63 855.8 781.86 810.97 788.73 789.54 768.76 771.24 752.8 739.53 732.95 666.87 707.88 647.05 702.24 664.45 663.62 676.11 651.01 675.86 628.6"/><polyline class="cls-1" points="810.97 788.73 768.64 809.61 784.45 842.02"/><polyline class="cls-1" points="654.53 717.13 642.86 740.91 644.74 752.8 644.74 752.81 644.75 752.81 666.87 752.81 671.07 738.29 664.22 717.13"/><polyline class="cls-1" points="682.72 628.6 682.72 616.94 689.18 610.85 721.52 610.85 729.17 615.64 731.79 619.73 719.71 631.84 715.84 626.49 710.47 622 702 620.68 693.29 622 688 627.28 687.04 632.3"/><polyline class="cls-1" points="536.99 603.5 536.99 603.49 539.33 597.7 547.8 594.07 563.8 598.82 563.81 598.82"/><polyline class="cls-1" points="572.15 618.46 577.76 614.43 579.01 610.42 579.01 610.41"/><polyline class="cls-1" points="842.85 702.59 855.8 767.33 861.03 769.63"/><polyline class="cls-1" points="736.49 787.49 742.24 794.77 717.97 815.37 697.25 821.5 678.08 826.27"/><polyline class="cls-1" points="586.85 778.96 611.38 820.18 649.69 832.07 650.03 832.1 684.16 834.82 724.02 822.98 748.2 794.27"/><polyline class="cls-1" points="719.71 820.18 724.02 822.98 727.51 828.11 731.61 838.67 735.57 843.96 750.82 870.38"/><polyline class="cls-1" points="684.04 828.11 684.16 834.82 686.68 854.53 690.65 867.57 690.65 879.42 694.41 917.95 651.43 908.17 625.43 884.64 620.89 873.24 611.77 850.38 595.52 809.61"/><polyline class="cls-1" points="653.65 825.46 650.03 832.1 649.69 832.73 649.69 851.89 649.69 870.38 651.43 885.68 651.43 908.17 652.33 917.95"/><polyline class="cls-1" points="616.66 813.57 611.38 820.18 615.34 836.03"/><line class="cls-1" x1="653.65" y1="805.65" x2="649.69" y2="797.72"/><line class="cls-1" x1="617.98" y1="796.32" x2="617.98" y2="802.58"/><polyline class="cls-1" points="512.23 472.15 508 459.07 505.68 451.87 510.44 407.28 498.07 382.27 493.79 373.61 496.05 359.17 500.1 333.2 503.01 314.58 512.23 300.64"/><polyline class="cls-1" points="578.33 254.2 570.42 255.83 563.59 257.23 555.66 258.85 547.3 260.57 536.73 265.68 532.1 267.92 514.93 291.7 512.89 300.79 510.44 311.79 498.07 382.27"/><line class="cls-1" x1="582.31" y1="253.38" x2="578.35" y2="254.19"/><polyline class="cls-1" points="548.79 187 555.88 176.75 574.38 168.83"/><path class="cls-1" d="M662,173.05v0l-16.26-37.64L667,173.65l-21.23-46.1,25.1,46.56s-2.21-48.2-1.77-46.56,4.52,47.3,4.52,47.3l2.53-43v43.69l6.61-37.08-3.87,37.82,9.82-16.68,17.83-19.82h7.93l7.93-14.53,9.24-7.93h6.89l-12.17,13.21,22.62-13.21-16,13.21,35.67-19.82-34.35,23.78,39.63-19.81-39.63,26.42,35.67-15.85-9.25,5.82-26.42,16.64,17.17-7.93-23.78,25.1h11.89L762,138.44v-5.29l2.64,5.29,7.23-12,.7-1.16-4,13.21,7.93-9.25L760.67,179.4l-9.25,4,7.44,1.29,7.68,1.35,6.27-10.57-1.57,13.87-6.91,5.49-19.74,15.65-7.2.52-8.49.62-7.86.55-4,.3"/><path class="cls-1" d="M657.08,172.46s0,0,0,0c-.57-1-19.23-34-17.94-32.67S661.33,172.06,662,173"/><path class="cls-1" d="M645.73,171.11c0-1-9.25-18.14-9.25-18.14l13.78,18.68-16.42-27.93,23.22,28.71"/><polyline class="cls-1" points="839.61 503.18 828.74 489.51 951.04 582.36"/><polyline class="cls-1" points="814.84 567.83 873.17 545.37 858.44 526.85 839.63 503.2"/><polyline class="cls-1" points="305.62 524.84 333.76 555.94 370 571.79 415.31 588.31 455.02 618.46 500.17 695.84 458.5 668.25 432.55 651.06 358.85 588.31 277.11 575.76 222.94 541.4 262.15 536.41 293 528.67 305.62 524.84 313.95 522.31 320.71 520.26 330.04 508.14 333.92 503.09 352.58 481.65 389.41 448.92 510.44 407.28 381.49 446.28 230.87 520.26 219.04 541.4"/><path class="cls-1" d="M114.87,531.59a3.63,3.63,0,0,0-.62-.24c-4.32-.82-11.15-49.7-11.15-49.7l-7-19.52,5.28-19.82,23.78-17.17,43.6-9.25,33-18.5,81.92-33,44.92-9.24,62.09-10.57,30.39-11.9,25.11-13.21,11.67-5.28H474l11.89-7.93,12.21-14L513.61,256l7-23.79,2.23-19.81,11.9-18.5,10.57-6.61,3.47-.31,11.06-1,11.89,7.93L582,203.18l2.93,2.64,7.55,4.62,32.09,13.88,9.46,7.92"/><path class="cls-1" d="M500.17,695.84l10.27,28.87,23.34,69,21.88,87.76,6.83,60.28-18.1-50.87L506.56,812.2l-32.59-29-46.12-30.37-62.77-35.69L252.93,632.3l-47.39-38.23S123.92,536,114.89,531.6"/><polyline class="cls-1" points="330.04 508.14 351.1 533.48 366.69 545.37 400.67 555.94 431.69 575.76 466.53 606.14 481.69 635.21 493.79 677.87 500.17 695.81"/><polyline class="cls-1" points="96.11 462.13 108 443.64 127.81 429.1 168.77 415.89 151.6 430.42 115.92 447.6 103.1 481.65"/><line class="cls-1" x1="466.53" y1="606.14" x2="509.1" y2="618.46"/><polyline class="cls-1" points="896.75 671.54 896.75 671.69 896.75 680.28 896.75 705.23 898.26 698.63 898.26 725.49 900.61 702.59 916.03 727.91 927.53 732.95 1045.3 750.64 1094.78 764.69 1214.99 727.91 1292.13 722.41 1344.1 721.05"/><polyline class="cls-1" points="910.56 675.35 905.32 676.64 900.35 677.87 896.75 680.28"/><polyline class="cls-1" points="929.78 664.38 926.22 667.12 921.79 670.53 917.89 673.52 914.29 674.42 910.56 675.34"/><polyline class="cls-1" points="960.2 609.02 954.89 631.25 945.64 645.78 935.07 660.31 929.78 664.37"/><polyline class="cls-1" points="935.19 611.81 930.35 615.74 920.21 623.98 918.5 627.03 913.93 635.21 908.39 644.64 908.38 644.66"/><line class="cls-1" x1="562.49" y1="941.79" x2="565.83" y2="1083"/><line class="cls-1" x1="968.3" y1="244.46" x2="1001.74" y2="329.35"/><polyline class="cls-1" points="812.37 219.03 786.92 210.44 791.56 207.91 797.47 204.68 802.95 201.68 829.27 187.32 844.14 183.43 854.48 180.72 860.01 178.77 861.54 178.25 880.9 171.47 902.97 159.58 919.68 159.58 938.5 168.83 968.3 244.45"/><polyline class="cls-1" points="841.26 176.75 839.41 167.5 838.62 163.54 830.7 146.37 841.26 163.36 837.88 149.01 850.54 166.04 854.33 171.13 860.01 178.77"/><polyline class="cls-1" points="829.37 248.1 831.87 251.61 834.16 254.8 835.89 257.23 837.04 258.85 838.79 261.31 840.75 264.06 843.5 267.92 845.35 270.5 849.19 261.31 851.74 236.21 854.03 271.87 854.33 276.5 854.33 319.47 884.86 387.06 938.5 417.21"/><polyline class="cls-1" points="892.05 412.79 888.83 408.98 884.86 404.3 881.89 400.79 877.35 395.43 874.56 389.57 872.23 384.71 869.84 379.7 867.25 374.27 865.05 369.65 862.4 363.31 859.99 357.52 857.08 350.56 854.33 343.96 852.09 338.6 849.19 331.65 848.13 324.38 846.85 315.65 845.39 305.57 844 296.11 844.48 287.07 844.94 278.33 845.35 270.5 758.35 346.63 707.82 405.32"/><polyline class="cls-1" points="936.8 428.52 913.93 421.18 908.09 419.55 901.38 417.69 894.6 415.81 892.05 412.8"/><polyline class="cls-1" points="884.86 647.1 888.83 652.39 888.83 639.33 896.75 671.69 897.56 674.98 894.6 655.03 901.05 663.62 898.08 649.74 905.92 657.15 904.18 637.85 908.71 646.44 908.39 644.64 903.36 616.71 904.52 600.86 912.19 632.3 912.19 616.34 916.57 625.96 916.57 616.69 918.82 621.58 914.29 600.86 935.19 611.81 949.6 619.36 933.27 606.14 951.82 613.41 937.46 603.5 960.2 609.02 978.22 613.41 939.03 598.22 985.27 610.11 942.68 594.07 985.27 606.14 948.43 588.31 989.24 600.86 951.04 582.36 974.04 590.38 989.24 595.68 973.38 578.4 981.37 578.4 994.52 585 990.56 569.15 987.11 565.12 999.81 573.11 986.6 555.94 999.81 559.9 990.56 551.97 997.83 551.97 994.52 546.69 1001.13 549.33 985.27 532.16 993.9 536.41 987.28 528.67 998.49 533.48 987.92 525.55 998.78 528.67 990.41 522.72 999.81 525.55 995.85 521.59 1010.38 525.55 998.49 518.94 1009.06 521.59 999.81 509.7 1010.38 509.7 1005.09 505.73 1016.03 505.73 1007.74 501.77 1020.91 501.77 1002.45 493.84 997.17 488.56 997.17 485.91 1015.66 493.84 998.49 483.27 999.81 481.95 1015.66 484.59 1005.09 479.31 1016.03 479.31 998.49 475.35 990.56 470.06 1013.02 472.7 993.2 467.42 1016.03 467.42 995.85 463.45 994.52 460.81 1001.57 460.81 994.52 454.2 976.03 447.6 950.92 433.07 936.81 428.53"/><polyline class="cls-1" points="994.52 454.2 1022.27 456.85 1120.04 485.91 1347.75 567.83 1473.9 621.58 1537.31 646.44 1537.76 646.69 1549.56 653.11 1589.72 674.98"/><polyline class="cls-1" points="1537.31 646.44 1486.79 666.92 1420.93 684.09 1344.1 721.05 1317.17 743.13 1253.15 795.66 1196.71 871.71 1121.72 992.34 1094.78 1035.69 1083.8 1083.01"/><polyline class="cls-1" points="677.91 917.95 695.27 957.29 743.5 985.53 794.77 941.79 851.94 903.98 932.45 854.53 948.43 851.72 985.02 845.28 1057.15 842.02 1102.63 815.37 1151.93 821.5 1098.96 854.53 1094.78 896.49 1121.72 992.34"/><polyline class="cls-1" points="894.59 834.01 880.16 829.16 851.94 819.69"/><polyline class="cls-1" points="1317.17 743.13 1322.18 731.66 1215.16 735.62 1094.78 764.69 1069.49 780.32 1047.74 793.75 980.84 819.9 948.43 824.75 908.38 838.65 894.6 834.01"/><polyline class="cls-1" points="1549.56 653.11 1501.42 684.09 1434.52 701.05 1354.02 732.95 1260.09 796.32 1196.71 871.71 1301.76 813.57 1483.65 778.96 1589.72 731.66"/><path class="cls-1" d="M744.59,210.44l24-2,18.32,2-17-4.62s-4.16-8.84-4.16-9.24h0c.2,0,8.1,4.07,8.1,4.07l-2.62-11.34"/><polyline class="cls-1" points="597.97 358.26 600.07 351.52 607.73 345.93 612.29 342.62 617.98 338.47 624.28 333.88 630.49 329.35 635.76 325.51 641.76 321.13 648.37 316.32 654.98 311.52 660.96 307.43 667.34 303.09 673.63 298.79 679.21 294.99 684.04 291.7 681.62 284.58 678.66 275.82 675.98 267.92 673.39 260.27 671.07 253.38 668.41 249.99 664.86 245.46 657.62 236.21"/><polyline class="cls-1" points="600.07 402.75 589.18 386.4 590.47 382.27 592.35 376.24 595.22 367.07 597.97 358.27"/><polyline class="cls-1" points="786.92 256.02 736.89 268.93 684.04 291.7"/><polyline class="cls-1" points="604.77 402.68 595.22 386.4 608.57 354.31 686.68 296.98 797.47 256.02"/><polyline class="cls-1" points="611.82 402.68 601.37 386.4 621.95 356.23 697.25 300.64 808.89 256.02"/><polyline class="cls-1" points="1206.29 1083.01 1231.02 1032.89 1275.94 982.69 1318.22 966.83 1367.1 950.98 1483.37 932.48 1589.72 909.04"/><polyline class="cls-1" points="1589.72 520.86 1201.95 427.78 1114.85 398.64 1020.91 367.2 974.04 329.35 982.41 329.35 1001.74 329.35 1056.62 345.87"/><polyline class="cls-1" points="1354.39 396.07 1327.47 382.86 1090.97 360.4 1001.74 329.35 1051.34 360.4 1306.33 398.71 1397.49 417.21 1354.41 396.07"/><polyline class="cls-1" points="1327.47 382.86 1544.98 409.28 1354.41 396.07 1354.39 396.07"/><line class="cls-1" x1="1397.49" y1="417.21" x2="1544.98" y2="409.28"/><polyline class="cls-1" points="571.74 193.93 595.22 200.64 633.84 200.64 660.96 212.43 683.42 201.3"/><polyline class="cls-1" points="617.98 240.18 607.73 246.92 597.89 253.38 587.59 249.42 570.42 237.53"/><polyline class="cls-1" points="353.98 651.06 493.79 752.89 533.78 793.75"/><polyline class="cls-1" points="373.92 456.44 295.44 494.5 236.89 523.57 222.94 541.4 219.04 541.4 209.73 541.4 159.72 523.57 142.35 508.38 120.91 459.07 115.92 447.6"/><line class="cls-1" x1="389.41" y1="448.92" x2="373.93" y2="456.42"/><polyline class="cls-1" points="373.93 456.43 373.92 456.44 335.24 492.52 313.95 522.31"/><polyline class="cls-1" points="496.05 359.17 473.97 386.4 252.67 459.07 161.16 433.13 151.6 430.42 204.84 402.75 291.64 374.93 390.74 356.44 473.97 314.16"/><polyline class="cls-1" points="739.53 879.9 739.54 879.9 797.47 860.95 851.94 819.69 871.57 789.83 884.86 769.63 883.54 717.13"/><polyline class="cls-1" points="871.57 789.83 901.74 803.95 908.38 838.65 932.45 842.02 985.02 845.28"/><polyline class="cls-1" points="1035.01 859.06 1057.15 842.02 1046.17 820.18 1047.21 802.58 1047.74 793.75"/><polyline class="cls-1" points="730.09 887.86 760.27 899.28 784.45 932.2 789.8 936.39 932.45 854.53 966.78 894.17 994.52 890.22 1034.99 859.07"/><polyline class="cls-1" points="694.41 917.95 721.52 950.5 743.5 985.53 739.54 1014.28"/><polyline class="cls-1" points="508.69 635.21 502.36 649.41 496.05 663.62 500.17 695.81 500.17 695.84"/><polyline class="cls-1" points="222.94 541.4 196.31 551.55 153.45 546.48 114.89 531.6 114.87 531.59 114.25 531.35"/><polyline class="cls-1" points="931.11 658.99 939.03 640.5 954.89 631.25 942.16 644.66 931.11 658.99 917.08 668.25 897.56 674.98"/><line class="cls-1" x1="935.19" y1="611.81" x2="939.03" y2="640.49"/><polyline class="cls-1" points="917.08 668.25 928.48 656.35 933.54 641.82 930.35 615.74"/><polyline class="cls-1" points="935.07 660.31 935.07 683.67 941.64 700.94 935.07 691.37 939.03 706.41 933.54 700.94 937.12 712.68 932.45 706.67 930.39 718.12 928.29 717.13 928.29 726.8 925.31 714.77 917.89 719.77 921.79 712.16 915.25 715.8 919.22 705.23 915.09 708.67 911.29 711.84 913.93 695.99 907.32 709.2 902.04 697.31 900.61 702.59"/><polyline class="cls-1" points="730.09 1083.01 739.53 1014.29 739.54 1014.29 739.54 1014.28 812.2 947.01 966.78 894.17"/><polyline class="cls-1" points="1094.78 1035.69 1016.98 947.01 954.89 952.95 839.72 991.35 739.54 1014.29"/><line class="cls-1" x1="481.69" y1="635.21" x2="502.36" y2="649.41"/><polyline class="cls-1" points="916.03 727.91 917.08 796.32 926.22 822.98 948.43 824.75"/><polyline class="cls-1" points="1151.93 821.5 1253.15 795.66 1260.09 773.94 1215.35 764.69 1099.65 778.96 1047.21 802.58"/><polyline class="cls-1" points="1196.71 871.71 1225.73 891.52 1282.94 903.86 1367.1 950.98"/><polyline class="cls-1" points="1275.94 982.69 1221.77 1031.57 1193.05 1082.44"/><polyline class="cls-1" points="580.99 1082.44 574.54 957.12 555.66 881.51 603.37 875.51"/><polyline class="cls-1" points="786.92 241.23 754.7 237.53 702.08 241.23 667.75 245.13 664.86 245.46"/><polyline class="cls-1" points="535.46 317.82 533.78 287.23 555.66 258.85"/><polyline class="cls-1" points="578.79 382.27 561.49 375.38 548.79 370.33 543.31 357.03 536.73 341.07 535.46 317.84"/><line class="cls-1" x1="589.18" y1="386.4" x2="578.79" y2="382.28"/><polyline class="cls-1" points="862.4 363.31 853.93 371.38 808.89 392.28 786.92 397.51 783.66 400.79 780.48 404 776.52 407.96 806.11 421.18 831.87 440.9 872.31 430.44 874.89 427.09 888.83 408.98"/><line class="cls-1" x1="515.76" y1="412.06" x2="521.51" y2="417.21"/><line class="cls-1" x1="510.44" y1="407.28" x2="515.76" y2="412.05"/><polyline class="cls-1" points="532.1 267.92 517.57 308.13 503.01 377.13 514.78 402.75 522.86 409.28"/><line class="cls-1" x1="120.91" y1="459.07" x2="161.16" y2="433.13"/><polyline class="cls-1" points="948.43 851.72 974.04 879.9 1001.74 879.9 1034.99 859.07 1035.01 859.06"/><line class="cls-1" x1="908.38" y1="838.65" x2="932.45" y2="854.53"/><polyline class="cls-1" points="965.68 162.56 967.82 169.79 996.88 267.92 1005.09 295.66 1024.4 326.71 1001.74 329.35"/><polyline class="cls-1" points="925.82 143.72 945.64 150.33 956.21 168.83 965.23 225.28 968.3 244.45 968.3 244.47"/><polyline class="cls-1" points="888.33 175.43 902.97 159.58 921.86 172.79 982.41 329.35"/><polyline class="cls-1" points="855.03 218.07 860.01 233.05 854.03 271.87 854.03 271.91"/><polyline class="cls-1" points="797.47 204.68 813.52 213.75 847.87 196.57 855.02 218.07"/><polyline class="cls-1" points="855.02 218.07 855.03 218.07 878.26 232.24 889.61 261.31"/><polyline class="cls-1" points="869.51 273.86 876.94 315.48 913.24 385.63 953.57 413.25 1029.35 427.25"/><polyline class="cls-1" points="950.92 433.07 938.5 417.21 903.36 388.14 866.37 314.16 869.51 273.86 889.61 261.31 908.65 249.42 894.6 197.85 862.4 180.72"/><polyline class="cls-1" points="582.02 203.18 561.58 210.44 559.85 220.35 585.35 241.49 607.73 246.92"/><polyline class="cls-1" points="601.73 178.07 594.2 187 595.22 200.64"/><polyline class="cls-1" points="649.69 180.72 633.84 191.29 633.84 200.64"/><polyline class="cls-1" points="574.38 168.83 604.16 175.43 641.76 175.43 681.4 193.93"/><polyline class="cls-1" points="839.41 167.5 822.77 135.8 836.57 175.43 821.59 167.5 828.74 178.77 815.67 174.47 800.35 159.58 802.95 168.83 815.67 186 797.47 180.72 807.31 189.36 783.96 187 772.81 175.43 779.17 195.25 796.71 202.77"/><polyline class="cls-1" points="837.88 149.01 833.27 135.8 821.45 118.62 798.99 102.77 826.73 115.98 850.51 141.08 854.48 145.04 833.34 117.3 855.8 134.47 863.06 143.72 869.51 149.01 857.12 129.19 872.11 146.37 867.94 135.8 858.44 123.91 834.66 105.41 866.02 125.89 880.48 146.37 882.22 137.12 880.49 129.04 878.26 118.62 858.53 102.77 882.22 117.88 894.34 135.13 896.75 137.12 887.51 118.62 899.4 137.12 891.47 98.8 904.68 130.51 904.68 144.54 908.65 131.83 908.65 113.7 912.61 133.15 911.29 141.08 917.89 131.83 909.17 151.85"/><polyline class="cls-1" points="595.22 261.31 597.97 298.21 612.29 342.62"/><line class="cls-1" x1="574.54" y1="957.12" x2="627.23" y2="901.75"/><polyline class="cls-1" points="994.52 890.22 1057.15 859.55 1098.96 854.53 1112.2 834.82 1060.58 849.25 994.52 890.22 1016.98 947.01"/><polyline class="cls-1" points="1282.94 903.86 1227.19 879.9 1301.76 813.57 1354.02 732.95 1420.93 684.09"/><polyline class="cls-1" points="884.86 769.63 917.08 796.32 901.74 803.95 880.16 829.16 842.85 871.71 818.73 888.3 855.8 870.38 894.59 834.01 894.6 834.01"/><line class="cls-1" x1="760.27" y1="899.28" x2="818.72" y2="888.3"/><polyline class="cls-1" points="999.81 509.7 888.83 435.71 896.7 432.54 906.66 428.52 913.93 421.18 999.81 481.95"/><polyline class="cls-1" points="776.52 407.96 806.11 412.24 832.68 433.07 872.31 425.11 884.86 404.3"/><polyline class="cls-1" points="831.87 440.9 854.33 442.82 877.35 433.07 892.05 412.8 892.05 412.79"/><polyline class="cls-1" points="877.35 433.07 886.33 430.37 896.7 427.25 903.82 425.11 908.09 419.55"/><line class="cls-1" x1="886.33" y1="430.36" x2="894.6" y2="415.81"/><line class="cls-1" x1="896.7" y1="427.25" x2="901.38" y2="417.69"/><polyline class="cls-1" points="701.22 397.39 752.96 342.62 801.63 300.64 843.5 267.92"/><polyline class="cls-1" points="822.9 364.44 830.7 357.27 849.19 331.65"/><polyline class="cls-1" points="786.92 397.51 796.34 388.86 806.93 379.12 822.89 364.44"/><polyline class="cls-1" points="879.58 175.43 896.7 183.74 911.29 212.43 932.43 290.38 949.43 325.1"/><polyline class="cls-1" points="967.82 169.79 977.18 175.43 980.84 199.13 1005.09 295.66"/><polyline class="cls-1" points="965.23 225.28 983.95 259.99 996.88 267.92"/><line class="cls-1" x1="908.65" y1="249.42" x2="906.61" y2="298.96"/><polyline class="cls-1" points="485.86 306.23 500.1 333.2 472.65 376.25 321.23 409.28 241.44 438.35 151.6 430.42"/><line class="cls-1" x1="1020.91" y1="367.2" x2="1025.1" y2="413.25"/><line class="cls-1" x1="1142.17" y1="459.07" x2="1589.73" y2="606.14"/><line class="cls-1" x1="252.67" y1="459.07" x2="142.35" y2="508.37"/><polyline class="cls-1" points="1537.54 647.1 1501.42 684.09 1483.65 778.96"/><polyline class="cls-1" points="431.69 575.76 455.02 618.46 458.52 668.25 458.5 668.25 353.98 651.06 277.11 575.76"/><line class="cls-1" x1="333.76" y1="555.94" x2="358.85" y2="588.31"/><polyline class="cls-1" points="625.91 401.36 712.37 307.87 831.87 251.61"/><polyline class="cls-1" points="707.82 303.59 620.19 386.61 619.14 402.68 608.57 386.4 630.61 359.88 707.82 303.59 816.16 256.02"/><polyline class="cls-1" points="637.69 402.48 719.71 310.19 834.16 254.8"/><polyline class="cls-1" points="648.37 404 725.9 312.84 835.89 257.23"/><polyline class="cls-1" points="677.91 395.43 742.12 316.15 838.79 261.31"/><polyline class="cls-1" points="685.36 400.04 754.51 322.63 840.75 264.06"/><polyline class="cls-1" points="713.44 407.28 765.76 350.56 844.94 278.33"/><line class="cls-1" x1="844.47" y1="287.07" x2="721.04" y2="409.92"/><line class="cls-1" x1="728.9" y1="412.64" x2="844" y2="296.11"/><line class="cls-1" x1="738.21" y1="415.89" x2="845.39" y2="305.57"/><polyline class="cls-1" points="846.85 315.65 754.87 409.28 764.63 413.25 848.13 324.38"/><polyline class="cls-1" points="796.34 388.86 808.89 386.53 851.83 367.01 859.99 357.52"/><polyline class="cls-1" points="806.93 379.12 848.13 363.31 857.08 350.56"/><polyline class="cls-1" points="822.89 364.44 822.9 364.44 846.51 357.52 854.33 343.96"/><polyline class="cls-1" points="830.7 357.27 843.5 352.56 852.09 338.6"/><polyline class="cls-1" points="971.92 164.93 968.28 159.34 968.13 159.12 966.24 156.19 963.41 151.85 950.92 143.72 947.05 114.51 945.64 139.76 943.21 114.51 932.45 85.3 938.5 114.58 940.06 137.78 929.78 131.83 941.81 143.72"/><polyline class="cls-1" points="963.41 151.85 964.28 146.37 966.73 151.85 969.42 138.44 968.13 159.12 968.1 159.58 968.28 159.34 974.04 151.85 971.92 164.93"/><polyline class="cls-1" points="982.02 174.78 995.04 162.56 983.53 178.05"/><path class="cls-1" d="M984.48,180.1l8.72-6-7.18,9.3s14.38-9.3,12.76-8-11.09,13.37-11.52,13.91"/><path class="cls-1" d="M987.94,194.09s38.29,3.8,35.65,3.8-35.05.36-35.05.36l17.29,5.69L1021,216.39l-19.21-11.15L989,201.66"/><polyline class="cls-1" points="940.06 137.78 943.59 141.63 949.43 148"/><line class="cls-1" x1="945.64" y1="139.76" x2="950.92" y2="143.72"/><line class="cls-1" x1="966.73" y1="151.85" x2="966.24" y2="156.2"/><line class="cls-1" x1="911.29" y1="141.08" x2="905.54" y2="153.46"/><line class="cls-1" x1="904.68" y1="144.54" x2="901.96" y2="155.06"/><line class="cls-1" x1="899.4" y1="137.12" x2="898.05" y2="156.63"/><line class="cls-1" x1="896.75" y1="137.12" x2="895.08" y2="157.77"/><polyline class="cls-1" points="878.26 118.62 891.47 138.44 891.47 159.16"/><polyline class="cls-1" points="880.48 129.02 880.49 129.04 886.75 139.76 887.56 160.66"/><line class="cls-1" x1="882.22" y1="137.12" x2="882.58" y2="162.56"/><line class="cls-1" x1="880.48" y1="146.37" x2="876.2" y2="164.49"/><polyline class="cls-1" points="872.11 146.37 874.29 150.33 871.15 166.03 871.15 166.04"/><line class="cls-1" x1="869.51" y1="149.01" x2="866.37" y2="167.48"/><polyline class="cls-1" points="854.48 145.04 863.1 151.85 861.06 169.09"/><polyline class="cls-1" points="821.45 118.62 851.56 149.84 856.79 154.01 854.33 171.13 861.06 169.09 866.37 167.48 871.15 166.03 876.2 164.5 876.2 164.49 882.58 162.56 887.56 160.66 891.47 159.16 895.08 157.77 898.05 156.63 900.72 155.61 901.96 155.06 905.54 153.47 909.17 151.85 912.61 150.33 925.82 143.72 941.81 143.72 949.43 148 953.57 150.33 965.68 162.56 971.92 164.93 978.67 167.5 982.02 174.78 983.53 178.05 984.48 180.1 986.01 183.41 986.6 184.68 987.26 189.34 987.26 189.36 987.94 194.09 988.54 198.25 989.01 201.66 989.03 201.66 989.24 203.18 996.52 219.03 996.52 231.65 1005.09 295.66 1024.91 322.08 1056.62 345.87 1336.71 372.29 1533.83 395.43 1589.72 409.28"/><polyline class="cls-1" points="833.27 135.8 851.04 157.77 850.54 166.04"/><line class="cls-1" x1="841.26" y1="163.36" x2="854.48" y2="180.72"/><line class="cls-1" x1="836.57" y1="175.43" x2="837.31" y2="178.77"/><line class="cls-1" x1="828.74" y1="178.77" x2="830.69" y2="182.17"/><line class="cls-1" x1="802.95" y1="168.83" x2="821.45" y2="186.9"/><line class="cls-1" x1="815.67" y1="186" x2="816.85" y2="189.3"/><line class="cls-1" x1="807.31" y1="189.36" x2="811.05" y2="192.33"/><line class="cls-1" x1="815.67" y1="174.47" x2="826.12" y2="184.51"/><polyline class="cls-1" points="783.96 187 802.95 196.57 802.95 201.68"/><path class="cls-1" d="M773.86,200.64c.27,0,17.7,7.27,17.7,7.27l5.15-5.14,6.24-6.2,8.1-4.24,5.8-3,3.79-2,.81-.42,4.67-2.39,4.57-2.34,6.62-3.4,4-2,2.88,6.68"/><polyline class="cls-1" points="807.41 406.59 834.16 427.25 870.9 419.55 881.89 400.79"/><line class="cls-1" x1="806.95" y1="406.25" x2="807.24" y2="406.47"/><line class="cls-1" x1="780.48" y1="404" x2="806.93" y2="406.22"/><path class="cls-1" d="M806.93,406.22l0,0a1.66,1.66,0,0,0,.29.22l.18.12c3.72,2.44,27.6,15.88,27.6,15.88l34.49-7.32,7.84-19.72,61.15,21.78,93,17.18-2.17-7.14-4.25-14L1073.8,445l68.37,14.11-27.32-60.43"/><polyline class="cls-1" points="832.45 388.01 857.08 377.39 865.05 369.65"/><polyline class="cls-1" points="783.66 400.79 804.68 398.15 810.71 397.39 816.45 394.91 821.45 392.76 827.27 390.25 832.44 388.01"/><polyline class="cls-1" points="804.68 398.15 835.01 417.21 867.69 410.61 874.56 389.57"/><path class="cls-1" d="M810.7,397.39c1.5,0,23.46,13.45,23.46,13.45l30.2-5.74,7.87-20.39"/><polyline class="cls-1" points="816.45 394.91 834.16 405.55 863.1 400.23 869.84 379.7"/><polyline class="cls-1" points="821.45 392.76 834.16 401.04 861.35 395.43 864.37 384.6 865.44 380.75 867.25 374.27"/><polyline class="cls-1" points="827.27 390.25 834.66 396.07 858.44 390.79 864.36 384.6"/><polyline class="cls-1" points="832.44 388.01 832.45 388.01 837.5 390.34 865.44 380.75"/><line class="cls-1" x1="851.83" y1="492.52" x2="989.24" y2="595.68"/><line class="cls-1" x1="766.54" y1="186" x2="737.39" y2="210.96"/><line class="cls-1" x1="758.86" y1="184.65" x2="728.9" y2="211.57"/><polyline class="cls-1" points="768.6 138.44 751.42 183.36 721.03 212.13"/><polyline class="cls-1" points="764.63 138.44 744.82 184.51 721.03 205.82"/><polyline class="cls-1" points="761.99 138.44 738.21 183.21 720.45 200.64"/><polyline class="cls-1" points="739.53 164.86 731.52 182.17 719.71 193.93"/><polyline class="cls-1" points="727.64 164.86 721.03 180.72 711.97 188.3 714.19 196.57 705.18 209.45 687.7 216.96 683.42 201.3 681.4 193.93 649.69 180.72 625.91 178.07 601.73 178.07 574.38 168.83 584.95 162.22 600.81 159.58 637.69 170.15 645.73 171.11 650.26 171.65 657.08 172.46 662 173.05 666.96 173.65 670.83 174.11 673.58 174.85 678.85 176.26 683.42 177.49 688.16 178.77 693.18 180.12 696.49 181.02 700.75 182.17 705.18 183.36 708.81 186 711.97 188.3 715.47 190.84 719.71 193.93 720.45 200.64 721.03 205.82 717.07 212.43 705.18 216.39 694.61 219.03 687.7 216.96 681.4 215.07 684.04 224.32 673.47 222.68 673.47 226.96 669.51 224.32 669.51 229.6 665.54 228.16 665.54 230.92 660.96 233.97 657.62 236.21 645.28 228.28 639.12 224.32 640.44 228.28 633.84 226.96 634.05 232.24 628.55 232.24 623.27 240.17 617.98 240.18 612.29 248.47 607.73 255.11 603.46 261.31 600.07 261.31 595.22 261.31 592.88 261.31 587.7 257.23 584.63 254.8 582.51 253.13 570.42 243.58 570.42 237.53 540.19 210.44 545.32 187.32"/><polyline class="cls-1" points="733.35 164.86 725.9 182.83 715.47 190.84"/><polyline class="cls-1" points="660.96 212.43 660.96 233.97 667.34 241.49 705.13 236.21 754.87 232.24 790.93 237.53"/><line class="cls-1" x1="604.16" y1="175.43" x2="637.69" y2="170.15"/><line class="cls-1" x1="839.63" y1="490.92" x2="974.05" y2="590.38"/><line class="cls-1" x1="851.99" y1="485.32" x2="973.38" y2="578.4"/><line class="cls-1" x1="853.56" y1="481.65" x2="981.36" y2="578.4"/><line class="cls-1" x1="858.44" y1="475.34" x2="994.52" y2="585"/><line class="cls-1" x1="866.37" y1="471.38" x2="990.56" y2="569.15"/><line class="cls-1" x1="986.6" y1="555.94" x2="869.01" y2="467.42"/><line class="cls-1" x1="876.94" y1="462.13" x2="990.56" y2="551.97"/><line class="cls-1" x1="880.9" y1="458.17" x2="994.52" y2="546.69"/><line class="cls-1" x1="985.28" y1="532.16" x2="882.22" y2="454.21"/><line class="cls-1" x1="886.19" y1="452.88" x2="987.28" y2="528.67"/><line class="cls-1" x1="894.6" y1="448.92" x2="995.85" y2="521.59"/><line class="cls-1" x1="1005.09" y1="505.73" x2="896.7" y2="432.54"/><line class="cls-1" x1="906.66" y1="428.52" x2="1002.45" y2="493.84"/><polyline class="cls-1" points="936.8 428.52 936.81 428.53 993.2 467.42"/><line class="cls-1" x1="994.52" y1="460.81" x2="976.03" y2="447.6"/><polyline class="cls-1" points="948.43 588.31 839.63 503.2 839.61 503.18"/><line class="cls-1" x1="942.68" y1="594.07" x2="858.44" y2="526.85"/><line class="cls-1" x1="939.03" y1="598.22" x2="873.17" y2="545.37"/><polyline class="cls-1" points="879.58 571.79 908.1 595.68 914.29 600.86"/><line class="cls-1" x1="933.27" y1="606.14" x2="877.35" y2="562.6"/><line class="cls-1" x1="875.18" y1="553.64" x2="937.46" y2="603.5"/><path class="cls-1" d="M904.52,600.86c0-.12-24-18.5-24-18.5"/><polyline class="cls-1" points="879.43 588.31 899.04 603.5 904.18 637.85"/><polyline class="cls-1" points="877.69 591.61 894.02 606.14 898.08 649.74"/><polyline class="cls-1" points="877.07 602.39 888.83 611.81 894.6 655.03"/><polyline class="cls-1" points="888.83 639.33 884.86 615.74 876.73 608.34"/><polyline class="cls-1" points="876.33 615.21 880.9 622 888.83 652.39"/><polyline class="cls-1" points="935.07 691.37 929.78 682.77 929.78 664.38 929.78 664.37"/><polyline class="cls-1" points="926.22 667.12 925.82 684.09 933.54 700.94"/><polyline class="cls-1" points="932.45 706.67 921.79 686.38 921.79 670.53"/><polyline class="cls-1" points="920.54 692.88 917.46 687.25 917.89 673.52"/><line class="cls-1" x1="923.67" y1="698.63" x2="920.54" y2="692.89"/><polyline class="cls-1" points="928.29 717.13 928.48 707.45 926.22 703.32 923.67 698.64"/><line class="cls-1" x1="898.26" y1="698.63" x2="900.35" y2="677.87"/><line class="cls-1" x1="902.04" y1="697.31" x2="905.32" y2="676.64"/><polyline class="cls-1" points="907.32 709.2 910.56 675.35 910.56 675.34"/><polyline class="cls-1" points="913.93 695.99 914.29 674.42 914.29 674.41"/><line class="cls-1" x1="917.46" y1="687.25" x2="915.09" y2="708.67"/><polyline class="cls-1" points="919.22 705.23 920.54 692.89 920.54 692.88"/><polyline class="cls-1" points="921.79 712.16 923.67 698.64 923.67 698.63"/><line class="cls-1" x1="925.31" y1="714.77" x2="926.22" y2="703.32"/><polyline class="cls-1" points="734.25 147.69 719.71 166.04 715.47 179.49 708.81 186"/><polyline class="cls-1" points="734.25 141.08 714.44 164.86 705.18 183.36 681.4 193.93"/><polyline class="cls-1" points="734.25 134.47 710.44 163.36 700.75 182.17"/><polyline class="cls-1" points="732.93 130.51 706.95 161.56 696.49 181.02"/><polyline class="cls-1" points="726.32 130.51 717.19 141.97 700.75 162.56 693.18 180.12"/><polyline class="cls-1" points="714.43 139.76 696.49 161.56 688.16 178.77"/><polyline class="cls-1" points="709.75 139.76 690.65 163.54 683.42 177.49"/><line class="cls-1" x1="586.46" y1="380.63" x2="590.47" y2="382.27"/><polyline class="cls-1" points="563.59 257.23 540.19 287.07 542.67 340.58 553.24 367.01 561.58 370.43 568.33 373.19 578.35 377.3 586.46 380.61"/><polyline class="cls-1" points="570.42 255.83 547.3 287.07 548.79 338.6 561.58 370.43"/><polyline class="cls-1" points="568.33 373.19 555.03 338.6 552.94 287.07 578.33 254.2 578.35 254.19"/><polyline class="cls-1" points="584.63 254.8 558.86 288.79 561.49 337.23 578.35 377.3"/><polyline class="cls-1" points="586.46 380.63 586.46 380.61 567.78 336.62 565.33 289.49 587.7 257.23"/><polyline class="cls-1" points="592.88 261.31 589.18 265.83 582.31 274.23 574.38 283.92 572.15 336.18 592.35 376.24 592.88 377.3"/><polyline class="cls-1" points="582.31 274.23 578.35 335.31 595.22 367.07"/><polyline class="cls-1" points="589.18 265.83 584.63 335.31 597.97 358.26 597.97 358.27"/><polyline class="cls-1" points="595.22 261.31 591.29 333.2 600.07 351.52"/><polyline class="cls-1" points="597.97 298.21 597.97 329.35 607.73 345.93"/><polyline class="cls-1" points="927.9 748.4 927.91 748.4 968.64 767.33 1047.21 771.74 1069.49 780.3 1020.91 789.83 948.28 785.83 928.46 771.29 927.91 748.4 927.53 732.95"/><path class="cls-1" d="M632.07,411.85c-1.74-2.53-6.16-10.49-6.16-10.49h6.83l6.38,9.25-1.43-8.13,6.54,9.45V404.3l10.3,8.63L648.37,404l9.25,5.28,10.32-4,2.89-6.61v6.61l7.08-9.89-2.67,9.89L685.36,400v10.71l15.86-13.36,6.6,7.93,5.62,2,7.6,2.64,7.86,2.73,9.31,3.24,26.42-2.64,11.9-5.29,25.1,18.82,18.5,19.5L836,448.92H855.4L878.26,437l10.57-1.32,5.77,13.21-8.41,4-9.25-4,5.28,5.29L869,448.92l11.89,9.25-15.85-5.29,11.89,9.25-17.18-4,9.25,9.25-21.14-4,18.5,7.93-26.43-2.64,18.5,6.6-21.14,1.33,16.26,5H835l17,3.67-18.65.59,18.49,6.61-12.2-1.6h0l-10.87-1.41-34,33.21"/><path class="cls-1" d="M632.07,411.85c.46.38.7.65.67.74S632.45,412.42,632.07,411.85Z"/><path class="cls-1" d="M536.73,265.68l-6,20.65-7.84,26.8-13.58,66L521.51,400l12.27,9.24,10.61,1.39L555,412.05l8.81,1.15,11.76-3.92,8.22-2.73,5.39-1.8,6-2h4.85l11.31,15.79,7.92,4-14.53-19.82,18.5,14.53-11.45-14.53,15.41,13.21-8.09-13.21s10.2,6.83,12.93,9.17"/><polyline class="cls-1" points="522.86 212.43 533.78 253.38 547.3 260.57 533.78 287.23 517.57 380.75 529.25 397.78 544.39 410.66"/><polyline class="cls-1" points="535.46 317.82 535.46 317.84 527.16 382.27 537.26 397.39 555 412.05"/><polyline class="cls-1" points="536.73 341.07 536.73 382.27 550.51 400.04 563.81 413.19"/><polyline class="cls-1" points="543.31 357.03 546.24 382.27 559.85 397.39 575.57 409.28"/><polyline class="cls-1" points="548.79 370.33 558.86 383.15 583.79 406.55"/><line class="cls-1" x1="561.49" y1="375.38" x2="589.18" y2="404.75"/><polyline class="cls-1" points="578.79 382.27 578.79 382.28 595.22 402.75"/><line class="cls-1" x1="912.19" y1="616.34" x2="908.1" y2="595.68"/><polyline class="cls-1" points="600.07 261.31 603.75 298.21 617.98 338.47"/><polyline class="cls-1" points="603.46 261.31 610.78 296.11 624.28 333.88"/><line class="cls-1" x1="607.73" y1="255.11" x2="630.49" y2="329.35"/><line class="cls-1" x1="612.29" y1="248.47" x2="635.76" y2="325.51"/><line class="cls-1" x1="617.98" y1="240.18" x2="641.76" y2="321.13"/><line class="cls-1" x1="623.27" y1="240.17" x2="648.37" y2="316.32"/><line class="cls-1" x1="628.55" y1="232.24" x2="654.97" y2="311.52"/><line class="cls-1" x1="634.05" y1="232.24" x2="660.96" y2="307.43"/><line class="cls-1" x1="640.44" y1="228.28" x2="667.34" y2="303.09"/><line class="cls-1" x1="645.28" y1="228.28" x2="673.63" y2="298.79"/><line class="cls-1" x1="657.62" y1="236.21" x2="679.21" y2="294.99"/><polyline class="cls-1" points="668.41 249.99 755.57 244.47 786.92 247.23"/><polyline class="cls-1" points="786.92 252.39 739.19 249.99 671.07 253.38"/><polyline class="cls-1" points="758.82 258.2 718.63 261.31 675.98 267.92"/><polyline class="cls-1" points="673.39 260.27 740.06 255.11 786.92 256.02 758.86 258.19"/><polyline class="cls-1" points="678.66 275.82 758.82 258.2 758.86 258.19"/><line class="cls-1" x1="681.62" y1="284.58" x2="736.89" y2="268.93"/><polyline class="cls-1" points="515.76 412.05 515.76 412.06 508 459.07"/><polyline class="cls-1" points="665.54 230.92 671.07 236.21 754.87 225.04 793.9 234.79 793.7 245.46 808.89 249.08 826.73 230.92 829.37 248.1 816.16 256.02 808.89 256.02 797.47 256.02 786.92 256.02 786.92 252.39 786.92 247.23 786.92 241.23 790.93 237.53 790.94 237.53 793.9 234.79 798.97 230.1 802.94 226.44 808.14 221.63 812.37 219.03 812.38 219.03 835.98 204.5 847.87 196.57 862.4 180.72 879.58 175.43 888.33 175.43 892.76 175.43 908.65 182.04 935.07 225.64 974.04 329.35 949.43 325.11 916.57 319.44 906.61 298.96 918.12 270.5 908.65 249.42"/><polyline class="cls-1" points="669.51 229.6 754.87 219.55 798.97 230.1 798.99 230.1"/><polyline class="cls-1" points="684.04 224.32 737.39 216.15 754.87 216.15 763.05 216.15 802.94 226.44 802.95 226.44"/><polyline class="cls-1" points="808.14 221.63 771.24 212.43 737.3 213.77 730.16 214.05 694.61 219.03"/><line class="cls-1" x1="768.64" y1="809.61" x2="760.27" y2="809.75"/></g></svg>